<?xml version="1.0" encoding="utf-8"?>
<!-- Generator: Adobe Illustrator 26.3.1, SVG Export Plug-In . SVG Version: 6.00 Build 0)  -->
<svg version="1.1" id="Layer_1" xmlns="http://www.w3.org/2000/svg" xmlns:xlink="http://www.w3.org/1999/xlink" x="0px" y="0px"
	 viewBox="0 0 1920 1080" style="enable-background:new 0 0 1920 1080;" xml:space="preserve">
<style type="text/css">
	.st0{fill:#ED2D4B;}
	.st1{fill:#3F9673;}
	.st2{fill:#23674E;}
	.st3{fill:#CD3433;}
	.st4{fill:#F06875;}
	.st5{display:none;fill:none;stroke:#E9B6C0;stroke-width:2;stroke-miterlimit:10;}
</style>
<g>
	<g>
		<circle class="st0" cx="675.52" cy="516.41" r="51.44"/>
		<path class="st1" d="M818.78,277.32c0,0,30.2-76.7,0-121.92s-34.25-64.12-34.25-64.12s-28.67,106.48-8.26,142.36
			S818.78,277.32,818.78,277.32z"/>
		<path class="st1" d="M788.69,236.16c-4.07-8.61-8.01-17.27-11.91-25.96c-8.31-18.47-16.37-37.06-23.92-55.86
			c-6.91-17.2-13.99-34.73-18.25-52.82c-0.88-3.72-0.72-7.67-1.47-11.43c-0.16-0.79-0.58-4.27-1.75-4.38
			c-1.17-0.1-2.27,4.13-2.52,5.05c-0.92,3.53-1.59,7.14-2.24,10.73c-1.83,10.15-3.26,20.37-4.6,30.59
			c-3.23,24.55-8.07,46.15,2.24,69.7c4.19,9.57,9.31,18.75,14.76,27.66c0.63,1.04,6.6,12.3,7.84,12.13
			C746.88,241.59,788.69,236.16,788.69,236.16z"/>
		<path class="st1" d="M967.63,203.54c-13.07,3.52-26.41,6.27-39.77,8.44c-13.24,2.15-26.93,4.13-40.36,2.82
			c-11.62-1.13-24.41-1.02-35.49,3.84c-12.53,5.5-20.59,17.2-29.24,27.27c-4.61,5.37-9.02,10.91-13.24,16.58
			c-0.99,1.33-5.17,5.4-5.17,7.17v23.74C804.36,293.4,960.99,283.15,967.63,203.54z"/>
		<path class="st2" d="M765.72,239.14c0,0-47.95-112.24-34.95-153.52c0,0,1.94-0.57,1.94,4.08s35.84,105.96,55.97,146.46
			C808.82,276.65,765.72,239.14,765.72,239.14z"/>
		<path class="st2" d="M795.75,256.75c0,0,17.02-45.13-10.41-165.48c4.71,8.9,9.42,17.8,14.13,26.69c4.4,8.31,8.72,16.39,14,24.18
			c4.97,7.33,8.92,15.53,12.02,23.8c10.79,28.8,6.23,57.77,0.12,86.98l-6.6,21.24L795.75,256.75z"/>
		<circle class="st0" cx="583.98" cy="441.24" r="51.32"/>
		<circle class="st3" cx="599.37" cy="372.48" r="58.31"/>
		<circle class="st3" cx="620.53" cy="486.02" r="58.03"/>
		<circle class="st3" cx="741.62" cy="486.78" r="63.05"/>
		<circle class="st4" cx="663.89" cy="428.28" r="58.08"/>
		<circle class="st0" cx="629.89" cy="284.96" r="59.63"/>
		<circle class="st4" cx="817.11" cy="445.44" r="63.48"/>
		<circle class="st0" cx="753.31" cy="389.91" r="63.79"/>
		<circle class="st3" cx="690.8" cy="333.09" r="63.83"/>
		<circle class="st0" cx="867.74" cy="380.17" r="54.97"/>
		<circle class="st3" cx="686.53" cy="237.33" r="60.07"/>
		<path class="st1" d="M784.83,300.74c0,0,148.23,82.18,207.39-14.08c-17.99-1.89-35.96-4.4-53.78-7.53
			c-12.21-2.15-24.6-4.43-36.38-8.36c-14.18-4.74-22.36-17.44-37.17-21.68c-8.01-2.29-17.73,4.15-25.08,7.29
			c-10.15,4.34-20.3,8.68-30.45,13.02c-3.51,1.5-38.01,19.41-40.42,17.27C768.94,286.66,784.83,300.74,784.83,300.74z"/>
		<path class="st2" d="M809.59,269.29c35.3,23.47,64.97,31.6,81.9,34.85c13.61,2.61,22.77,2.78,25.98,2.8
			c27.18,0.15,48.41-8.42,58.97-12.79c6.74-2.8,12.15-5.53,15.79-7.48c-11.25,17.31-23.4,26.75-31.44,31.88
			c-67.17,42.91-164.11-12.46-175.15-20.16c-0.76-0.53-16.7-11.72-16.7-11.72l0,0C782.49,280.87,796.04,275.08,809.59,269.29z"/>
		<path class="st2" d="M804.35,277.49c0,0,46.9-35.62,71.46-37.17s87.17-23.99,91.82-36.77c0,0-2.34,20.69-12.26,31.56
			s-18.23,21.07-45.91,33.49c-27.68,12.42-96.7,27.21-105.11,24.79L804.35,277.49L804.35,277.49z"/>
		<circle class="st3" cx="820.62" cy="338.92" r="65.37"/>
		<circle class="st4" cx="756.04" cy="273.56" r="65.24"/>
	</g>
	<path class="st5" d="M516.32,594.45h497.97V59H493.82c0.09,0.64,0.15,1.3,0.15,2c-0.01,41.41-0.46,82.82-1.25,124.22
		c-0.71,36.77-1.68,73.54-2.84,110.31c-0.57,18.22-1.19,36.44-1.85,54.66c-0.64,17.86-1.74,35.76-1.49,53.63
		c0.81,58.79,13.4,116.68,16.72,175.25c0.25-0.01,0.48-0.04,0.74-0.04C513.42,579.03,517.52,587.26,516.32,594.45"/>
</g>
</svg>
