<?xml version="1.0" encoding="utf-8"?>
<!-- Generator: Adobe Illustrator 26.3.1, SVG Export Plug-In . SVG Version: 6.00 Build 0)  -->
<svg version="1.1" id="Layer_1" xmlns="http://www.w3.org/2000/svg" xmlns:xlink="http://www.w3.org/1999/xlink" x="0px" y="0px"
	 viewBox="0 0 1920 1080" style="enable-background:new 0 0 1920 1080;" xml:space="preserve">
<style type="text/css">
	.st0{fill:#222458;}
	.st1{fill:#F06875;}
	.st2{fill:#FFD54B;}
	.st3{fill:#ED2D4B;}
	.st4{display:none;fill:#222458;}
</style>
<path class="st0" d="M474.54,103.25c-4.44-2.36-12.23-7.54-25.63-12.58c-26.52-9.98-34.14-3.98-35.14-3.01
	c-1.27,1.23-2.18,2.91-2.67,5.12c-0.18,0.84-2.59,10.42,3.24,19.36c10.78,16.47,44,9.46,66.33,67.35
	c2.27,5.92,8.58,23.12,5.54,38.46c-3.2,16.18-15.98,26.03-32.52,20.72c-6.15-1.97-10.78-5.38-18.79-11.28
	c-15.7-11.6-23.58-21.79-43.43-42.84c-21.63-22.9-32.59-34.4-40.33-36.85c-11.82-3.72-24.03,1.95-25.73,15.27
	c-3.63,28.28,40.14,65.74,42.23,97.4c1.66,25.12-36.58,35.61-67.01,10.89c-30.45-24.69-28.89-48.22-43.5-92.81
	c-14.61-44.61-82.76-74.18-59.95,11.8c22.81,86.01,56.87,142.01-3.13,165.09c-60,23.08-105.86-23.19-124.97-64.81
	C50,248.91,83.56,226.56,81.42,203.62c-1.04-11.28-8.03-25.39-18.13-34.2c-13.07-11.41-27-6.06-38.1-1.43
	C10.09,174.27,2.97,183.23-3,190.42V-0.47h581.87c3.61,7.38,6.35,14.82,8.01,22.22c0.24,1.06,4.28,22.82-2.78,40.98
	C569.19,101.07,505.97,119.94,474.54,103.25z"/>
<path class="st0" d="M1164.98,80.57c-2.22,25.19-49.9,51.85-82.35,39.03c-13.66-5.4-20.56-12.96-24.69-22.87
	c-0.02-0.02-0.02-0.07-0.05-0.11c-1.86-4.45-3.15-9.39-4.24-14.84c0-0.02-0.02-0.05-0.02-0.07c0.94-5.92,2.9-23.51-7.74-39.69
	c-10.98-16.7-34.29-30.23-52.14-22.78c-11.51,4.8-16.71,16.62-18.84,21.45c-7.21,16.38-4.15,32.32-3,38.39
	c19.31,101.41,15.83,116.27,13.46,122.76c-6.06,16.66-19.43,32.36-44.83,48.64c-75.91,48.7-123.29,20.04-139.29-14.91
	c-15.98-34.97,28.07-71.91,29.36-94.7c0.64-11.19-5.42-22.81-16.07-27.71c-13.8-6.33-31.45,4.97-45.54,14.36
	c-39.46,26.23-40.33,50.13-67.24,56.39c-13.28,3.09-30.82,1.38-42.12-9.15c-14.57-13.57-12.69-36.13-11.85-46.09
	c3.41-40.5,31.34-61.85,25.53-68.81c-5.01-6-27.54,7.86-66.73,24.72c-55.42,23.84-83.67,35.61-109.93,28.03
	c-22.45-6.48-46.87-25.47-57.93-34.08c-8.53-6.64-15.23-12.7-19.83-17.08c-3.77-11.01-9.01-31.66-3.63-55.67
	c0.48-2.13,1.02-4.24,1.63-6.26h713.13C1123.25,29.19,1167.71,49.46,1164.98,80.57z"/>
<path class="st0" d="M1308.43-0.47c-8.4,12.48-21.85,21.9-36.47,22.99c-7.06,0.5-12.03-1.09-20.67-3.86
	c-13.77-4.4-21.47-9.98-34.77-19.13C1216.52-0.47,1308.43-0.47,1308.43-0.47z"/>
<path class="st0" d="M1378.55,39.81c1.16-0.43,3.56-1.27,7.26-1.72V-0.19c-4.25,0.09-8.5,0.12-12.76,0.06
	c-1.06-0.01-2.05-0.13-2.97-0.34h-588.9c14.46,30.88,45.59,58.5,72.8,61.11c45.5,4.36,62.4-62.86,121.55-56.02
	c14.75,1.7,26.46,7.38,31.82,10.35c1.27,0.7,2.2,1.27,2.72,1.59c0.77,0.47,1.54,0.97,2.31,1.47c0,0,0,0.02,0.02,0.02
	c23.37,15.54,33.92,39.87,41.23,63.65c0,0.02,0.02,0.05,0.02,0.07c1.54,5.01,2.92,9.98,4.24,14.84c0.03,0.04,0.03,0.09,0.05,0.11
	c6.81,25.01,12.19,47.04,28.05,54.44c39.37,18.34,88.45-79.15,126.35-62.04c37.17,16.77,12.03,120.54,60.59,150.86
	c32.54,20.31,90.7,3.02,104.09-31.63c17.27-44.62-45.04-104.05-21.42-147.53C1357.46,57.4,1364.16,45.08,1378.55,39.81z"/>
<g>
	<path class="st1" d="M40.5,253.81c0.03,1.35,0.34,2.68,0.94,3.92c1.35,2.81,4.59,8.05,11.14,11.44c1.87,0.97,9.04,4.48,18.17,3.05
		c1.92-0.3,7.81-1.29,12.62-5.36c4.29-3.62,3.8-6.38,8.55-8.93c1.05-0.57,5.71-3.07,9.36-1.43c2.65,1.19,3.66,4.08,3.83,4.56
		c0.97,2.77-0.25,4.47,1.33,6.47c0.81,1.03,1.88,1.52,2.58,1.83c6.01,2.68,12.09-2.25,17.16-0.24c3.47,1.37,4.6,5.25,5.23,7.39
		c3.05,10.46-7.63,15.99-4.88,23.93c2.05,5.93,10.43,9.82,17.09,10.36c12.23,0.99,16.88-9.47,24.22-8.02
		c13.07,2.57,4.71,37.03,24.9,48.43c10.9,6.16,29.05,4.99,36.76-2.55c10.51-10.28-2.5-28.38,11.46-41.5
		c4.31-4.05,9.14-5.69,10.11-6.01c20.25-6.61,37.83,14.38,48.84,9.29c12.68-5.87-1.08-38.17,10.99-43.93
		c11.84-5.65,32.12,22.07,49.65,16.43c11.74-3.78,19.57-21.66,13.84-32.15c-7.38-13.5-34.92-10.53-40.7-25.36
		c-0.46-1.17-2.09-5.37-0.41-10c0.4-1.1,2.22-5.59,10.46-9.87c9.39-4.88,14.88-5.49,22.51-5.49c8.95,0,30.12-10.72,22.79-28.58
		s-69.19-1.43-70-17.15c-0.4-7.64,21.09-15.23,19.45-29.05c-0.72-6.07-5.83-10.15-6.83-10.95c-16.74-13.38-45.4,7.49-64.71-4.29
		c-13.32-8.12-7.38-22.34-23.19-29.31c-6.11-2.69-14.04-3.54-24.83-1.41c-5.04,0.99-10.5,2.55-14.29,6.82
		c-7.19,8.11-0.17,17.79-7.82,23.64c-3.91,2.99-9.23,3.11-9.64,3.12c-2.52,0.03-5-0.57-9.2-2.54c-11.36-5.32-10.72-15.37-35.57-8.89
		c-30.12,7.86-1.63,38.58-18.72,45.72s-55.35-15-72.44,6.43s30.12,30.72,40.7,35c10.58,4.29,23.61,13.97,13.02,29.13
		c-10.58,15.16-35.81-0.56-51.28,10.88C41.52,237.62,40.42,249.23,40.5,253.81z"/>
	<circle class="st1" cx="383.1" cy="220.29" r="12.93"/>
	<circle class="st2" cx="400.53" cy="188.97" r="7.94"/>
	<circle class="st1" cx="375.46" cy="149.13" r="7.64"/>
	<circle class="st3" cx="348.42" cy="104.49" r="6.47"/>
	<circle class="st3" cx="82.41" cy="200.03" r="7.82"/>
	<circle class="st2" cx="99.79" cy="286.71" r="5.29"/>
	<circle class="st2" cx="163.01" cy="317.86" r="3.53"/>
	<circle class="st1" cx="136.82" cy="332.85" r="5.88"/>
	<circle class="st3" cx="177.67" cy="357.24" r="6.76"/>
	<circle class="st2" cx="142.7" cy="82.62" r="10.58"/>
	<circle class="st2" cx="113.89" cy="130.94" r="8.82"/>
	<circle class="st1" cx="187.26" cy="93.2" r="2.83"/>
	<circle class="st3" cx="245.46" cy="62.17" r="2.65"/>
	<circle class="st2" cx="281.65" cy="90.37" r="6.7"/>
	<circle class="st1" cx="113.89" cy="104.49" r="4.41"/>
	<circle class="st3" cx="60.48" cy="130.94" r="4.7"/>
	<circle class="st2" cx="257.31" cy="338.13" r="5.28"/>
	<circle class="st3" cx="336.67" cy="294.64" r="2.65"/>
	<circle class="st1" cx="321.92" cy="317.86" r="9.99"/>
	<path class="st0" d="M264.37,329.03c0,0-1.58,0-3.53,0s-3.53,0-3.53,0s1.58,0,3.53,0S264.37,329.03,264.37,329.03z"/>
	<circle class="st3" cx="271.05" cy="313.82" r="4.04"/>
	<circle class="st2" cx="383.1" cy="275.92" r="2.42"/>
	<circle class="st0" cx="159.48" cy="149.13" r="12.93"/>
	<circle class="st2" cx="159.48" cy="265.09" r="7.94"/>
	<circle class="st0" cx="344.31" cy="258.14" r="7.64"/>
	<circle class="st3" cx="187.26" cy="181.04" r="6.47"/>
	
		<ellipse transform="matrix(0.4641 -0.8858 0.8858 0.4641 15.4105 308.4201)" class="st3" cx="262.59" cy="141.47" rx="6.76" ry="6.76"/>
	<circle class="st2" cx="293.45" cy="253.15" r="6.7"/>
	<circle class="st3" cx="302.8" cy="162.06" r="2.65"/>
	<circle class="st0" cx="207.24" cy="273.02" r="9.99"/>
	<circle class="st3" cx="257.2" cy="259.86" r="4.04"/>
	<circle class="st2" cx="220.78" cy="159.42" r="2.42"/>
	<circle class="st2" cx="223.2" cy="98.03" r="7.94"/>
	<circle class="st2" cx="74.59" cy="161.84" r="2.42"/>
	<circle class="st3" cx="210.35" cy="326.98" r="2.65"/>
	<circle class="st0" cx="65.18" cy="246.45" r="2.65"/>
	<path class="st2" d="M314.55,221.52c0.4-0.98,1.01-1.65,1.83-2.01c0.82-0.35,2.1-0.53,3.83-0.53s2.99,0.48,3.77,1.44
		s1.17,2.47,1.17,4.54v1.21c0,1.21-0.03,2.11-0.09,2.69s-0.25,1.27-0.57,2.08c-0.64,1.46-2.16,2.2-4.58,2.2
		c-2.41,0-4.01-0.49-4.79-1.48c-0.78-0.98-1.17-2.89-1.17-5.72C313.95,223.98,314.15,222.51,314.55,221.52z M322.57,212.7
		c-0.76,0.25-1.78,0.38-3.05,0.38c-1.28,0-2.29-0.13-3.05-0.38c-0.76-0.25-1.29-0.71-1.59-1.36s-0.48-1.24-0.54-1.74
		s-0.09-1.29-0.09-2.35v-24c0-1.06,0.03-1.85,0.09-2.38s0.25-1.12,0.57-1.78s0.86-1.12,1.62-1.4s1.78-0.42,3.05-0.42
		c1.28,0,2.29,0.14,3.05,0.42c0.76,0.28,1.29,0.76,1.59,1.44c0.3,0.68,0.48,1.29,0.54,1.82c0.06,0.53,0.09,1.32,0.09,2.38v24
		c0,1.06-0.03,1.84-0.09,2.35c-0.06,0.5-0.25,1.07-0.57,1.7S323.33,212.45,322.57,212.7z"/>
	<path class="st2" d="M113.72,229.51c-0.76-0.61-1.14-1.56-1.14-2.88c0-1.31,0.76-3.3,2.27-5.98c0.44-0.86,1.15-1.29,2.13-1.29
		c0.98,0,2.3,0.62,3.98,1.85c1.68,1.24,3.19,1.85,4.55,1.85c2.43,0,3.65-0.61,3.65-1.82c0-0.96-1.34-1.67-4.01-2.12
		c-2.51-0.45-5.01-1.64-7.48-3.56c-1.16-0.91-2.12-2.33-2.87-4.28c-0.76-1.94-1.14-4.25-1.14-6.93c0-7.97,4.33-11.96,12.99-11.96
		c2.83,0,5.75,0.86,8.74,2.57c1.4,0.81,2.1,1.82,2.1,3.03c0,1.21-0.44,2.7-1.32,4.47s-1.78,2.65-2.69,2.65
		c-0.48,0-1.37-0.38-2.66-1.14c-1.3-0.76-2.7-1.14-4.22-1.14c-2.36,0-3.53,0.56-3.53,1.67c0,1.51,1.36,2.5,4.07,2.95
		c2.63,0.35,5.19,1.31,7.66,2.88c1.16,0.71,2.12,1.93,2.9,3.67s1.17,3.92,1.17,6.55c0,2.62-0.39,4.86-1.17,6.7s-1.87,3.22-3.26,4.13
		c-2.55,1.57-5.76,2.35-9.61,2.35C120.97,233.75,117.27,232.33,113.72,229.51z"/>
	<path class="st2" d="M146.88,198.17c3.35-3.94,7.18-5.91,11.49-5.91c4.31,0,8.12,1.96,11.43,5.87c3.31,3.91,4.97,8.89,4.97,14.95
		c0,4.19-0.86,7.91-2.57,11.17c-1.72,3.26-3.8,5.65-6.26,7.19c-2.45,1.54-5,2.31-7.63,2.31s-5.19-0.82-7.66-2.46
		s-4.56-4.06-6.26-7.27c-1.7-3.2-2.54-6.83-2.54-10.86C141.85,207.1,143.53,202.1,146.88,198.17z M154.36,218.57
		c1.28,1.24,2.57,1.85,3.89,1.85c1.32,0,2.63-0.63,3.95-1.89c1.32-1.26,1.98-3.13,1.98-5.6s-0.62-4.31-1.86-5.53
		c-1.24-1.21-2.57-1.82-4.01-1.82c-1.44,0-2.77,0.63-4.01,1.89c-1.24,1.26-1.86,3.12-1.86,5.56
		C152.45,215.49,153.08,217.33,154.36,218.57z"/>
	<path class="st2" d="M176.12,221.18c0.34-0.81,0.91-1.37,1.71-1.7s2.07-0.49,3.83-0.49s3.02,0.49,3.8,1.48
		c0.78,0.98,1.17,2.89,1.17,5.72c0,1.06-0.06,2.04-0.18,2.95c-0.36,4.29-1.48,8.02-3.35,11.2c-1.88,3.18-4.07,4.77-6.58,4.77
		c-0.28,0-0.53-0.27-0.75-0.8s-0.33-1.21-0.33-2.04c0-0.83,0.09-1.5,0.27-2.01c0.18-0.51,0.41-0.82,0.69-0.95
		c0.28-0.13,0.57-0.33,0.87-0.61c0.3-0.28,0.71-0.95,1.23-2.01c0.52-1.06,0.82-2.27,0.9-3.63c-1.28-0.2-2.27-0.74-2.96-1.63
		c-0.7-0.88-1.04-2.32-1.02-4.31c0.02-1.99,0.06-3.28,0.12-3.86C175.58,222.68,175.78,221.99,176.12,221.18z"/>
	<path class="st2" d="M226.82,176.55c0.3-0.73,0.83-1.25,1.59-1.55s1.77-0.45,3.02-0.45s2.26,0.15,3.02,0.45
		c0.76,0.3,1.29,0.83,1.59,1.59s0.48,1.43,0.54,2.01s0.09,1.45,0.09,2.61v45.19c0,1.16-0.03,2.03-0.09,2.61s-0.25,1.22-0.57,1.93
		c-0.6,1.36-2.28,2.04-5.06,2.04c-2.77,0-4.32-1.24-4.64-3.71c-1.68,2.42-4.01,3.63-7,3.63c-3.59,0-6.86-1.98-9.82-5.94
		c-2.95-3.96-4.43-8.58-4.43-13.85s1.49-9.9,4.46-13.89s6.24-5.98,9.79-5.98c2.95,0,5.25,1.26,6.88,3.78v-15.9
		c0-1.16,0.03-2.03,0.09-2.61C226.35,177.94,226.53,177.29,226.82,176.55z M217.1,217.7c1.04,1.36,2.29,2.04,3.77,2.04
		c1.48,0,2.7-0.68,3.68-2.04s1.47-2.86,1.47-4.5s-0.47-3.17-1.41-4.58s-2.21-2.12-3.8-2.12c-1.6,0-2.87,0.69-3.83,2.08
		s-1.44,2.91-1.44,4.58C215.54,214.82,216.06,216.34,217.1,217.7z"/>
	<path class="st2" d="M255.47,232.91c-4.03,0-7.37-1.93-10.03-5.79c-2.65-3.86-3.98-8.57-3.98-14.12v-13.25
		c0-1.21,0.03-2.09,0.09-2.65c0.06-0.55,0.23-1.21,0.51-1.97c0.56-1.36,2.11-2.04,4.67-2.04c2.79,0,4.43,0.96,4.91,2.88
		c0.24,0.81,0.36,2.09,0.36,3.86v13.25c0,2.07,0.47,3.68,1.41,4.84s2.19,1.74,3.77,1.74s2.85-0.61,3.83-1.82
		c0.98-1.21,1.47-2.8,1.47-4.77v-13.4c0-1.16,0.03-2.03,0.09-2.61s0.25-1.25,0.57-2.01c0.52-1.31,2.05-1.97,4.61-1.97
		c2.51,0,4.05,0.68,4.61,2.04c0.28,0.76,0.45,1.43,0.51,2.01s0.09,1.45,0.09,2.61v26.8c0,1.11-0.03,1.96-0.09,2.54
		c-0.06,0.58-0.25,1.22-0.57,1.93c-0.6,1.31-2.14,1.97-4.61,1.97c-2.43,0-3.93-0.61-4.49-1.82c-0.4-0.86-0.6-1.89-0.6-3.1
		c-0.16,0.35-0.52,0.86-1.08,1.51c-0.56,0.66-1.1,1.21-1.62,1.67C258.54,232.36,257.06,232.91,255.47,232.91z"/>
	<path class="st2" d="M295.22,193.32c3.99,0,7.31,1.92,9.97,5.75c2.65,3.84,3.98,8.53,3.98,14.08v13.32c0,1.16-0.03,2.03-0.09,2.61
		s-0.25,1.25-0.57,2.01c-0.52,1.31-2.06,1.97-4.61,1.97c-2.43,0-3.95-0.66-4.55-1.97c-0.32-0.76-0.51-1.44-0.57-2.04
		c-0.06-0.61-0.09-1.51-0.09-2.72v-13.25c0-2.07-0.46-3.68-1.38-4.84s-2.09-1.74-3.5-1.74c-1.42,0-2.66,0.54-3.74,1.63
		c-1.08,1.09-1.7,2.31-1.86,3.67v14.69c0,1.16-0.03,2.03-0.09,2.61s-0.25,1.25-0.57,2.01c-0.52,1.31-2.06,1.97-4.61,1.97
		c-2.51,0-4.05-0.68-4.61-2.04c-0.28-0.76-0.45-1.41-0.51-1.97c-0.06-0.55-0.09-1.44-0.09-2.65v-45.27c0-1.16,0.03-2.03,0.09-2.61
		s0.23-1.22,0.51-1.93c0.56-1.36,2.11-2.04,4.67-2.04c2.51,0,4.03,0.68,4.55,2.04c0.32,0.76,0.51,1.43,0.57,2.01
		s0.09,1.45,0.09,2.61v16.73C290.21,194.86,292.54,193.32,295.22,193.32z"/>
	<path class="st0" d="M113.72,224.57c-0.76-0.61-1.14-1.56-1.14-2.88c0-1.31,0.76-3.3,2.27-5.98c0.44-0.86,1.15-1.29,2.13-1.29
		c0.98,0,2.3,0.62,3.98,1.85c1.68,1.24,3.19,1.85,4.55,1.85c2.43,0,3.65-0.61,3.65-1.82c0-0.96-1.34-1.67-4.01-2.12
		c-2.51-0.45-5.01-1.64-7.48-3.56c-1.16-0.91-2.12-2.33-2.87-4.28c-0.76-1.94-1.14-4.25-1.14-6.93c0-7.97,4.33-11.96,12.99-11.96
		c2.83,0,5.75,0.86,8.74,2.57c1.4,0.81,2.1,1.82,2.1,3.03c0,1.21-0.44,2.7-1.32,4.47s-1.78,2.65-2.69,2.65
		c-0.48,0-1.37-0.38-2.66-1.14c-1.3-0.76-2.7-1.14-4.22-1.14c-2.36,0-3.53,0.56-3.53,1.67c0,1.51,1.36,2.5,4.07,2.95
		c2.63,0.35,5.19,1.31,7.66,2.88c1.16,0.71,2.12,1.93,2.9,3.67s1.17,3.92,1.17,6.55c0,2.62-0.39,4.86-1.17,6.7s-1.87,3.22-3.26,4.13
		c-2.55,1.57-5.76,2.35-9.61,2.35C120.97,228.81,117.27,227.39,113.72,224.57z"/>
	<path class="st0" d="M146.88,193.23c3.35-3.94,7.18-5.91,11.49-5.91c4.31,0,8.12,1.96,11.43,5.87c3.31,3.91,4.97,8.89,4.97,14.95
		c0,4.19-0.86,7.91-2.57,11.17c-1.72,3.26-3.8,5.65-6.26,7.19c-2.45,1.54-5,2.31-7.63,2.31s-5.19-0.82-7.66-2.46
		s-4.56-4.06-6.26-7.27c-1.7-3.2-2.54-6.83-2.54-10.86C141.85,202.16,143.53,197.16,146.88,193.23z M154.36,213.63
		c1.28,1.24,2.57,1.85,3.89,1.85c1.32,0,2.63-0.63,3.95-1.89c1.32-1.26,1.98-3.13,1.98-5.6s-0.62-4.31-1.86-5.53
		c-1.24-1.21-2.57-1.82-4.01-1.82c-1.44,0-2.77,0.63-4.01,1.89c-1.24,1.26-1.86,3.12-1.86,5.56
		C152.45,210.55,153.08,212.39,154.36,213.63z"/>
	<path class="st0" d="M176.12,216.24c0.34-0.81,0.91-1.37,1.71-1.7s2.07-0.49,3.83-0.49s3.02,0.49,3.8,1.48
		c0.78,0.98,1.17,2.89,1.17,5.72c0,1.06-0.06,2.04-0.18,2.95c-0.36,4.29-1.48,8.02-3.35,11.2c-1.88,3.18-4.07,4.77-6.58,4.77
		c-0.28,0-0.53-0.27-0.75-0.8s-0.33-1.21-0.33-2.04c0-0.83,0.09-1.5,0.27-2.01c0.18-0.51,0.41-0.82,0.69-0.95
		c0.28-0.13,0.57-0.33,0.87-0.61c0.3-0.28,0.71-0.95,1.23-2.01c0.52-1.06,0.82-2.27,0.9-3.63c-1.28-0.2-2.27-0.74-2.96-1.63
		c-0.7-0.88-1.04-2.32-1.02-4.31c0.02-1.99,0.06-3.28,0.12-3.86C175.58,217.74,175.78,217.05,176.12,216.24z"/>
	<path class="st0" d="M226.82,171.61c0.3-0.73,0.83-1.25,1.59-1.55s1.77-0.45,3.02-0.45s2.26,0.15,3.02,0.45
		c0.76,0.3,1.29,0.83,1.59,1.59s0.48,1.43,0.54,2.01s0.09,1.45,0.09,2.61v45.19c0,1.16-0.03,2.03-0.09,2.61s-0.25,1.22-0.57,1.93
		c-0.6,1.36-2.28,2.04-5.06,2.04c-2.77,0-4.32-1.24-4.64-3.71c-1.68,2.42-4.01,3.63-7,3.63c-3.59,0-6.86-1.98-9.82-5.94
		c-2.95-3.96-4.43-8.58-4.43-13.85s1.49-9.9,4.46-13.89s6.24-5.98,9.79-5.98c2.95,0,5.25,1.26,6.88,3.78v-15.9
		c0-1.16,0.03-2.03,0.09-2.61C226.35,173,226.53,172.35,226.82,171.61z M217.1,212.76c1.04,1.36,2.29,2.04,3.77,2.04
		c1.48,0,2.7-0.68,3.68-2.04s1.47-2.86,1.47-4.5s-0.47-3.17-1.41-4.58s-2.21-2.12-3.8-2.12c-1.6,0-2.87,0.69-3.83,2.08
		s-1.44,2.91-1.44,4.58C215.54,209.88,216.06,211.4,217.1,212.76z"/>
	<path class="st0" d="M255.47,227.97c-4.03,0-7.37-1.93-10.03-5.79c-2.65-3.86-3.98-8.57-3.98-14.12v-13.25
		c0-1.21,0.03-2.09,0.09-2.65c0.06-0.55,0.23-1.21,0.51-1.97c0.56-1.36,2.11-2.04,4.67-2.04c2.79,0,4.43,0.96,4.91,2.88
		c0.24,0.81,0.36,2.09,0.36,3.86v13.25c0,2.07,0.47,3.68,1.41,4.84s2.19,1.74,3.77,1.74s2.85-0.61,3.83-1.82
		c0.98-1.21,1.47-2.8,1.47-4.77v-13.4c0-1.16,0.03-2.03,0.09-2.61s0.25-1.25,0.57-2.01c0.52-1.31,2.05-1.97,4.61-1.97
		c2.51,0,4.05,0.68,4.61,2.04c0.28,0.76,0.45,1.43,0.51,2.01s0.09,1.45,0.09,2.61v26.8c0,1.11-0.03,1.96-0.09,2.54
		c-0.06,0.58-0.25,1.22-0.57,1.93c-0.6,1.31-2.14,1.97-4.61,1.97c-2.43,0-3.93-0.61-4.49-1.82c-0.4-0.86-0.6-1.89-0.6-3.1
		c-0.16,0.35-0.52,0.86-1.08,1.51c-0.56,0.66-1.1,1.21-1.62,1.67C258.54,227.42,257.06,227.97,255.47,227.97z"/>
	<path class="st0" d="M295.22,188.38c3.99,0,7.31,1.92,9.97,5.75c2.65,3.84,3.98,8.53,3.98,14.08v13.32c0,1.16-0.03,2.03-0.09,2.61
		s-0.25,1.25-0.57,2.01c-0.52,1.31-2.06,1.97-4.61,1.97c-2.43,0-3.95-0.66-4.55-1.97c-0.32-0.76-0.51-1.44-0.57-2.04
		c-0.06-0.61-0.09-1.51-0.09-2.72v-13.25c0-2.07-0.46-3.68-1.38-4.84s-2.09-1.74-3.5-1.74c-1.42,0-2.66,0.54-3.74,1.63
		c-1.08,1.09-1.7,2.31-1.86,3.67v14.69c0,1.16-0.03,2.03-0.09,2.61s-0.25,1.25-0.57,2.01c-0.52,1.31-2.06,1.97-4.61,1.97
		c-2.51,0-4.05-0.68-4.61-2.04c-0.28-0.76-0.45-1.41-0.51-1.97c-0.06-0.55-0.09-1.44-0.09-2.65v-45.27c0-1.16,0.03-2.03,0.09-2.61
		s0.23-1.22,0.51-1.93c0.56-1.36,2.11-2.04,4.67-2.04c2.51,0,4.03,0.68,4.55,2.04c0.32,0.76,0.51,1.43,0.57,2.01
		s0.09,1.45,0.09,2.61V193C290.21,189.92,292.54,188.38,295.22,188.38z"/>
	<path class="st0" d="M314.55,216.58c0.4-0.98,1.01-1.65,1.83-2.01c0.82-0.35,2.1-0.53,3.83-0.53s2.99,0.48,3.77,1.44
		s1.17,2.47,1.17,4.54v1.21c0,1.21-0.03,2.11-0.09,2.69s-0.25,1.27-0.57,2.08c-0.64,1.46-2.16,2.2-4.58,2.2
		c-2.42,0-4.01-0.49-4.79-1.48c-0.78-0.98-1.17-2.89-1.17-5.72C313.95,219.04,314.15,217.57,314.55,216.58z M322.57,207.76
		c-0.76,0.25-1.78,0.38-3.05,0.38c-1.28,0-2.3-0.13-3.05-0.38c-0.76-0.25-1.29-0.71-1.59-1.36s-0.48-1.24-0.54-1.74
		s-0.09-1.29-0.09-2.35v-24c0-1.06,0.03-1.85,0.09-2.38s0.25-1.12,0.57-1.78s0.86-1.12,1.62-1.4s1.78-0.42,3.05-0.42
		c1.28,0,2.29,0.14,3.05,0.42c0.76,0.28,1.29,0.76,1.59,1.44c0.3,0.68,0.48,1.29,0.54,1.82c0.06,0.53,0.09,1.32,0.09,2.38v24
		c0,1.06-0.03,1.84-0.09,2.35c-0.06,0.5-0.25,1.07-0.57,1.7C323.87,207.07,323.33,207.51,322.57,207.76z"/>
</g>
<path class="st0" d="M474.54,103.25c0,0,34.93,21,38.34,45c3.27,23.06-11.22,45.33,2.03,66.28c2.72,4.31,5.84,7.27,7.98,9.06
	c1.49,0.92,9.02,5.34,18.32,2.98c9.02-2.29,13.38-9.36,14.7-11.5c8.65-14.03,0.46-30.64-0.21-31.95
	c-2.34-4.75-13.37-28.35-2.98-51.97c1.41-3.21,10.81-24.57,28.71-26.88c3.44-0.44,9.52-1.23,13.68,2.38
	c8.24,7.17-1.23,22.88,8.52,34.93c1.33,1.65,4.72,5.7,9.8,5.96c4.43,0.23,7.62-2.57,8.31-3.19c5.47-5.03,3.71-13.04,3.62-13.41
	c-7.5-13.73-13.67-30.77-7.03-44.31c7.1-14.47,23.76-14.57,25.56-27.05c2.26-15.66-21.08-35.57-21.09-35.57l0,0L474.54,103.25z"/>
<circle class="st2" cx="442.29" cy="104.02" r="6.94"/>
<circle class="st2" cx="590.43" cy="158.93" r="10.68"/>
<circle class="st2" cx="776.38" cy="169.97" r="21.71"/>
<circle class="st2" cx="781.55" cy="245.33" r="5.17"/>
<circle class="st2" cx="27.53" cy="200.15" r="12.97"/>
<ellipse transform="matrix(0.772 -0.6356 0.6356 0.772 198.2805 659.8564)" class="st2" cx="1018.99" cy="53.52" rx="6.04" ry="6.04"/>
<circle class="st2" cx="999.88" cy="113.17" r="13.07"/>
<circle class="st2" cx="1189.28" cy="142.31" r="19.54"/>
<circle class="st2" cx="1126.33" cy="172.76" r="14.41"/>
<circle class="st2" cx="1365" cy="73.66" r="4.48"/>
<circle class="st2" cx="1357.97" cy="262.65" r="8.94"/>
<circle class="st3" cx="1166.41" cy="201.68" r="6.5"/>
<circle class="st3" cx="60.45" cy="314.45" r="4.67"/>
<circle class="st3" cx="486.17" cy="135.73" r="12.52"/>
<circle class="st3" cx="572.22" cy="238.57" r="6.53"/>
<circle class="st3" cx="639.73" cy="77.33" r="5.29"/>
<circle class="st3" cx="726.66" cy="198.85" r="10.27"/>
<circle class="st3" cx="1050.31" cy="146.54" r="11.81"/>
<circle class="st3" cx="948.09" cy="272.12" r="16.3"/>
<circle class="st1" cx="1370.11" cy="105.61" r="9.59"/>
<circle class="st1" cx="19.84" cy="285.52" r="12.97"/>
<circle class="st1" cx="493.88" cy="173.62" r="3.65"/>
<circle class="st1" cx="608.06" cy="198.63" r="6.95"/>
<circle class="st1" cx="652.31" cy="214.8" r="14.74"/>
<circle class="st1" cx="836.85" cy="294.62" r="7.91"/>
<circle class="st1" cx="1010.82" cy="175.5" r="5.54"/>
<circle class="st1" cx="1033.97" cy="87.08" r="8.94"/>
<circle class="st1" cx="1203.04" cy="100.82" r="4.79"/>
<circle class="st1" cx="1211.99" cy="186.23" r="8.95"/>
<circle class="st1" cx="1274.04" cy="277.72" r="19.57"/>
<circle class="st3" cx="850.08" cy="186.23" r="6.47"/>
<circle class="st3" cx="1357.97" cy="188.97" r="10.32"/>
<circle class="st3" cx="1164.38" cy="82.61" r="4.47"/>
<circle class="st3" cx="672.8" cy="142.31" r="10.86"/>
<circle class="st3" cx="531.82" cy="190.7" r="4.48"/>
<circle class="st3" cx="590.43" cy="57.69" r="10.68"/>
<circle class="st2" cx="15.63" cy="109.92" r="11.9"/>
<circle class="st2" cx="447.49" cy="187.36" r="12.14"/>
<circle class="st2" cx="549.37" cy="105" r="4.92"/>
<circle class="st2" cx="945.14" cy="181.04" r="13.35"/>
<circle class="st2" cx="1277.63" cy="201.61" r="7.51"/>
<circle class="st2" cx="1317.49" cy="226.06" r="6.73"/>
<circle class="st2" cx="1301.7" cy="137.95" r="15.79"/>
<circle class="st1" cx="726.66" cy="130.94" r="3.82"/>
<circle class="st1" cx="894.3" cy="228.81" r="16.9"/>
<circle class="st1" cx="828.91" cy="238.66" r="4.91"/>
<circle class="st1" cx="1101.41" cy="100.08" r="22.42"/>
<circle class="st2" cx="737.13" cy="93.2" r="7.51"/>
<path class="st0" d="M1842.15,25.13c11.12,2.45,26.88,13.95,57.97,36.85c8.12,5.99,14.83,11.09,20.82,15.6
	c-0.04-0.46-0.07-0.93-0.07-1.42c-0.01-17.42-0.21-34.84-0.23-52.27c0-0.03,0-0.05,0-0.08c0-0.09,0-0.17,0-0.26c0-0.3,0-0.6,0-0.9
	c0-0.1,0.01-0.18,0.01-0.28c0.07-7.97,0.41-15.93,0-23.88c-23.58-1.12-47.27,0.53-70.84,1.17c-10.07,0.27-20.07,0.25-30.1-0.46
	c-31.72,2.48-63.45-0.03-95.3-0.09c-1.54,0-2.93-0.23-4.19-0.63c-22.1,4.33-44.5,3.86-66.89,2.28c-9.78-0.69-19.61-1.85-29.42-1.8
	c-10.2,0.05-20.34,1.28-30.52,1.61c-20.78,0.67-41.61-0.59-62.4-0.09c-9.61,0.23-19.27,1.63-28.88,1.31
	c-5.96-0.2-11.73-1.53-17.54-2.68c-2.09,0.04-4.18,0.05-6.28,0.01c-12.79-0.25-25.52-0.89-38.28-0.99
	c-8.67,0.93-17.29,2.03-26.05,1.38c-1.12-0.08-2.21-0.29-3.25-0.6c-12.54,0.57-25.07,1.15-37.63,0.98
	c-1.17-0.02-2.25-0.17-3.26-0.42c-10.65,1.55-17.1,2.43-18.47,2.5c-1.49,0.08-2.85,0.12-4.11,0.13c-2.11,1.89-4.6,3.35-7.63,4.09
	c-2.46,0.6-4.64,0.68-6.57,0.35v27.53c0,13.32,13.74,22.12,25.9,16.67c4.23-1.89,9.05-3.68,14.62-5.3
	c15.96-4.63,35.99-9.98,54.78,1.43c14.52,8.81,24.57,22.92,26.07,34.2c3.06,22.94-45.19,45.29-17.75,86.91
	c27.47,41.62,93.4,87.89,179.66,64.81s37.29-79.08,4.5-165.09c-32.79-85.98,65.18-56.41,86.19-11.8
	c21.01,44.59,18.76,68.12,62.54,92.81c43.75,24.72,98.72,14.23,96.34-10.89c-3-31.66-65.93-69.12-60.71-97.4
	C1807.6,27.08,1825.15,21.41,1842.15,25.13z"/>
<path class="st4" d="M1333.01-5v-103.68c0-10.12,8.2-18.32,18.32-18.32"/>
<circle class="st3" cx="1589.12" cy="190.41" r="11.81"/>
<circle class="st3" cx="1412.17" cy="174.95" r="16.3"/>
<circle class="st1" cx="1554.37" cy="155.9" r="5.54"/>
<circle class="st2" cx="1400.69" cy="78.88" r="13.35"/>
<circle class="st1" cx="1812.95" cy="122.67" r="22.42"/>
<circle class="st2" cx="1471.2" cy="167.6" r="6.04"/>
<circle class="st1" cx="1887.2" cy="77.6" r="4.79"/>
<circle class="st2" cx="1651.2" cy="45.6" r="14.41"/>
<circle class="st2" cx="1636.6" cy="172.96" r="21.71"/>
<circle class="st2" cx="1416.85" cy="241.05" r="5.17"/>
<circle class="st1" cx="1657.32" cy="100.37" r="8.95"/>
<circle class="st3" cx="1694.32" cy="73.37" r="16.3"/>
</svg>
