<?xml version="1.0" encoding="utf-8"?>
<!-- Generator: Adobe Illustrator 26.3.1, SVG Export Plug-In . SVG Version: 6.00 Build 0)  -->
<svg version="1.1" id="Layer_1" xmlns="http://www.w3.org/2000/svg" xmlns:xlink="http://www.w3.org/1999/xlink" x="0px" y="0px"
	 viewBox="0 0 1920 1080" style="enable-background:new 0 0 1920 1080;" xml:space="preserve">
<style type="text/css">
	.st0{fill:#E9B6C0;}
	.st1{fill:#F1EAEC;}
	.st2{fill:#F2D7DE;}
	.st3{fill:#F06875;}
	.st4{fill:#222458;}
	.st5{fill:#FFD54B;}
	.st6{fill:#ED2D4B;}
</style>
<g>
	<path class="st0" d="M973.25,321.23c-19.54,14.68-21.03,29.01-4.75,46.79c-21.95,9.91-26.13,23.26-13.5,43.59
		c-23.38,5.11-29.97,17.2-21.33,39.49c-23.93,0.33-32.63,10.87-28.3,34.44c-23.57-4.33-34.11,4.37-34.36,28.41
		c-22.37-8.76-34.46-2.17-39.47,21.45c-20.43-12.86-33.78-8.69-43.62,13.6c-17.84-16.62-32.18-15.13-46.86,4.78
		c-14.68-19.92-29.01-21.4-46.86-4.78c-9.84-22.28-23.19-26.46-43.62-13.6c-5.01-23.62-17.1-30.21-39.47-21.45
		c-0.26-24.04-10.79-32.74-34.36-28.41c4.33-23.57-4.37-34.11-28.3-34.44c8.64-22.29,2.06-34.38-21.33-39.49
		c12.62-20.33,8.45-33.68-13.5-43.59c16.28-17.77,14.8-32.11-4.75-46.79c19.54-14.68,21.03-29.01,4.75-46.79
		c21.95-9.91,26.13-23.26,13.5-43.59c23.38-5.11,29.97-17.2,21.33-39.49c23.93-0.33,32.63-10.87,28.3-34.44
		c23.57,4.33,34.11-4.37,34.36-28.41c22.37,8.76,34.46,2.17,39.47-21.45c20.43,12.86,33.78,8.69,43.62-13.6
		c17.84,16.62,32.18,15.13,46.86-4.78c14.68,19.92,29.01,21.4,46.86,4.78c9.84,22.28,23.19,26.46,43.62,13.6
		c5.01,23.62,17.1,30.21,39.47,21.45c0.26,24.04,10.79,32.74,34.36,28.41c-4.33,23.57,4.37,34.11,28.3,34.44
		c-8.64,22.29-2.06,34.38,21.33,39.49c-12.62,20.33-8.45,33.68,13.5,43.59C952.21,292.21,953.7,306.55,973.25,321.23z"/>
	<circle class="st1" cx="741.56" cy="320.28" r="193.84"/>
	<circle class="st2" cx="736.36" cy="325.28" r="190.4"/>
	<g>
		<path class="st3" d="M560.52,364.83c0.02,1.29,0.33,2.57,0.9,3.76c1.29,2.69,4.4,7.71,10.67,10.96c1.79,0.93,8.66,4.29,17.41,2.92
			c1.83-0.29,7.48-1.24,12.08-5.13c4.11-3.47,3.64-6.11,8.19-8.55c1.01-0.54,5.47-2.94,8.97-1.37c2.54,1.14,3.51,3.91,3.67,4.37
			c0.93,2.65-0.24,4.28,1.27,6.2c0.78,0.98,1.8,1.45,2.47,1.75c5.75,2.57,11.58-2.15,16.43-0.23c3.32,1.31,4.41,5.03,5.01,7.07
			c2.92,10.02-7.31,15.32-4.68,22.92c1.97,5.68,9.99,9.41,16.37,9.92c11.71,0.94,16.17-9.07,23.2-7.69
			c12.52,2.47,4.51,35.46,23.85,46.39c10.45,5.9,27.83,4.77,35.21-2.44c10.07-9.84-2.39-27.19,10.98-39.75
			c4.13-3.88,8.75-5.45,9.68-5.75c19.4-6.33,36.24,13.77,46.78,8.9c12.15-5.62-1.03-36.56,10.53-42.08
			c11.34-5.42,30.76,21.14,47.56,15.74c11.25-3.62,18.74-20.75,13.25-30.79c-7.07-12.93-33.45-10.09-38.98-24.29
			c-0.44-1.12-2-5.15-0.39-9.58c0.39-1.06,2.12-5.35,10.02-9.45c9-4.67,14.25-5.26,21.56-5.26c8.58,0,28.85-10.26,21.83-27.37
			c-7.02-17.11-66.27-1.37-67.05-16.42c-0.38-7.32,20.2-14.59,18.63-27.83c-0.69-5.81-5.58-9.72-6.54-10.49
			c-16.03-12.82-43.49,7.17-61.98-4.11c-12.76-7.78-7.07-21.4-22.21-28.07c-5.85-2.58-13.45-3.39-23.79-1.35
			c-4.82,0.95-10.06,2.44-13.68,6.53c-6.89,7.77-0.16,17.04-7.49,22.64c-3.75,2.87-8.84,2.98-9.23,2.99
			c-2.42,0.03-4.79-0.55-8.81-2.44c-10.88-5.1-10.27-14.72-34.07-8.51c-28.85,7.53-1.56,36.95-17.93,43.79
			c-16.37,6.84-53.02-14.37-69.39,6.16c-16.37,20.53,28.85,29.42,38.98,33.53s22.61,13.38,12.47,27.9
			c-10.14,14.52-34.3-0.53-49.12,10.42C561.49,349.32,560.43,360.45,560.52,364.83z"/>
		<circle class="st4" cx="888.66" cy="332.73" r="12.39"/>
		<circle class="st5" cx="905.35" cy="302.73" r="7.6"/>
		<circle class="st4" cx="881.34" cy="264.57" r="7.32"/>
		<circle class="st6" cx="855.45" cy="221.81" r="6.19"/>
		<circle class="st6" cx="600.65" cy="313.33" r="7.49"/>
		<circle class="st5" cx="617.3" cy="396.34" r="5.07"/>
		<circle class="st5" cx="677.85" cy="426.18" r="3.38"/>
		<circle class="st4" cx="652.77" cy="440.54" r="5.63"/>
		<circle class="st6" cx="691.9" cy="463.9" r="6.47"/>
		<circle class="st5" cx="658.4" cy="200.86" r="10.13"/>
		<circle class="st5" cx="630.81" cy="247.15" r="8.44"/>
		<circle class="st4" cx="701.08" cy="211" r="2.71"/>
		<circle class="st6" cx="756.82" cy="181.28" r="2.53"/>
		<circle class="st5" cx="791.49" cy="208.29" r="6.42"/>
		<circle class="st4" cx="630.81" cy="221.81" r="4.22"/>
		<circle class="st6" cx="579.65" cy="247.15" r="4.5"/>
		<circle class="st5" cx="768.18" cy="445.6" r="5.06"/>
		<circle class="st6" cx="844.19" cy="403.94" r="2.53"/>
		<circle class="st4" cx="830.06" cy="426.18" r="9.57"/>
		<path class="st4" d="M774.94,436.88c0,0-1.51,0-3.38,0s-3.38,0-3.38,0s1.51,0,3.38,0S774.94,436.88,774.94,436.88z"/>
		<circle class="st6" cx="781.34" cy="422.31" r="3.87"/>
		<circle class="st5" cx="888.66" cy="386.01" r="2.32"/>
		<circle class="st4" cx="674.47" cy="264.57" r="12.39"/>
		<circle class="st5" cx="674.47" cy="375.64" r="7.6"/>
		<circle class="st4" cx="851.51" cy="368.99" r="7.32"/>
		<circle class="st6" cx="701.08" cy="295.13" r="6.19"/>
		<circle class="st6" cx="773.24" cy="257.25" r="6.47"/>
		<circle class="st5" cx="802.79" cy="364.2" r="6.42"/>
		<circle class="st6" cx="811.75" cy="276.96" r="2.53"/>
		<circle class="st4" cx="720.22" cy="383.24" r="9.57"/>
		<circle class="st6" cx="768.08" cy="370.63" r="3.87"/>
		<circle class="st5" cx="733.19" cy="274.42" r="2.32"/>
		<circle class="st5" cx="735.51" cy="215.62" r="7.6"/>
		<circle class="st5" cx="593.16" cy="276.75" r="2.32"/>
		<circle class="st6" cx="723.2" cy="434.91" r="2.53"/>
		<circle class="st4" cx="584.15" cy="357.78" r="2.53"/>
		<path class="st5" d="M823.01,333.91c0.38-0.94,0.96-1.58,1.75-1.92c0.78-0.34,2.01-0.51,3.67-0.51c1.66,0,2.87,0.46,3.61,1.38
			c0.75,0.92,1.12,2.37,1.12,4.35v1.16c0,1.16-0.03,2.02-0.09,2.57c-0.06,0.56-0.24,1.22-0.54,1.99c-0.61,1.4-2.07,2.1-4.39,2.1
			c-2.31,0-3.84-0.47-4.59-1.41c-0.75-0.94-1.12-2.77-1.12-5.47C822.43,336.26,822.62,334.85,823.01,333.91z M830.69,325.46
			c-0.73,0.24-1.7,0.36-2.92,0.36c-1.22,0-2.2-0.12-2.92-0.36c-0.73-0.24-1.23-0.68-1.52-1.31c-0.29-0.63-0.46-1.18-0.52-1.67
			c-0.06-0.48-0.09-1.23-0.09-2.25v-22.99c0-1.02,0.03-1.78,0.09-2.28c0.06-0.51,0.24-1.08,0.54-1.7c0.31-0.63,0.82-1.08,1.55-1.34
			c0.73-0.27,1.7-0.4,2.92-0.4c1.22,0,2.2,0.13,2.92,0.4c0.73,0.27,1.23,0.72,1.52,1.38c0.29,0.65,0.46,1.23,0.52,1.74
			c0.06,0.51,0.09,1.27,0.09,2.28v22.99c0,1.02-0.03,1.77-0.09,2.25c-0.06,0.48-0.24,1.03-0.54,1.63
			C831.93,324.8,831.41,325.22,830.69,325.46z"/>
		<path class="st5" d="M630.64,341.56c-0.73-0.58-1.09-1.5-1.09-2.76c0-1.26,0.73-3.17,2.18-5.73c0.42-0.82,1.1-1.23,2.04-1.23
			c0.94,0,2.21,0.59,3.81,1.78c1.61,1.19,3.06,1.78,4.36,1.78c2.33,0,3.5-0.58,3.5-1.74c0-0.92-1.28-1.6-3.84-2.03
			c-2.41-0.44-4.8-1.57-7.17-3.41c-1.11-0.87-2.03-2.24-2.75-4.1c-0.73-1.86-1.09-4.07-1.09-6.63c0-7.64,4.15-11.46,12.44-11.46
			c2.71,0,5.5,0.82,8.37,2.47c1.34,0.77,2.01,1.74,2.01,2.9s-0.42,2.59-1.26,4.28c-0.84,1.69-1.7,2.54-2.58,2.54
			c-0.46,0-1.31-0.36-2.55-1.09c-1.24-0.73-2.59-1.09-4.04-1.09c-2.26,0-3.38,0.53-3.38,1.59c0,1.45,1.3,2.39,3.9,2.83
			c2.52,0.34,4.97,1.26,7.34,2.76c1.11,0.68,2.04,1.85,2.78,3.52c0.75,1.67,1.12,3.76,1.12,6.27c0,2.51-0.37,4.65-1.12,6.42
			c-0.75,1.77-1.79,3.08-3.13,3.95c-2.45,1.5-5.51,2.25-9.2,2.25C637.59,345.62,634.04,344.27,630.64,341.56z"/>
		<path class="st5" d="M662.4,311.54c3.21-3.77,6.88-5.66,11.01-5.66c4.13,0,7.78,1.87,10.95,5.62c3.17,3.75,4.76,8.52,4.76,14.32
			c0,4.01-0.82,7.58-2.47,10.69c-1.64,3.12-3.64,5.41-5.99,6.89c-2.35,1.48-4.79,2.21-7.31,2.21c-2.52,0-4.97-0.78-7.34-2.36
			c-2.37-1.57-4.37-3.89-5.99-6.96c-1.63-3.07-2.44-6.54-2.44-10.41C657.59,320.09,659.19,315.31,662.4,311.54z M669.57,331.08
			c1.22,1.19,2.47,1.78,3.73,1.78c1.26,0,2.52-0.6,3.78-1.81c1.26-1.21,1.89-3,1.89-5.37c0-2.37-0.59-4.13-1.78-5.29
			c-1.19-1.16-2.47-1.74-3.84-1.74c-1.38,0-2.66,0.6-3.84,1.81c-1.19,1.21-1.78,2.99-1.78,5.33
			C667.74,328.13,668.35,329.9,669.57,331.08z"/>
		<path class="st5" d="M690.41,333.58c0.32-0.77,0.87-1.32,1.63-1.63c0.76-0.31,1.99-0.47,3.67-0.47c1.68,0,2.9,0.47,3.64,1.41
			c0.75,0.94,1.12,2.77,1.12,5.47c0,1.02-0.06,1.96-0.17,2.83c-0.34,4.11-1.41,7.69-3.21,10.73c-1.8,3.05-3.9,4.57-6.31,4.57
			c-0.27,0-0.51-0.25-0.72-0.76c-0.21-0.51-0.32-1.16-0.32-1.96c0-0.8,0.09-1.44,0.26-1.92c0.17-0.48,0.39-0.79,0.66-0.91
			c0.27-0.12,0.54-0.32,0.83-0.58c0.29-0.27,0.68-0.91,1.18-1.92c0.5-1.02,0.78-2.18,0.86-3.48c-1.22-0.19-2.17-0.71-2.84-1.56
			c-0.67-0.84-0.99-2.22-0.97-4.13c0.02-1.91,0.06-3.14,0.11-3.7C689.9,335.02,690.09,334.36,690.41,333.58z"/>
		<path class="st5" d="M738.98,290.84c0.29-0.7,0.79-1.2,1.52-1.49c0.73-0.29,1.69-0.44,2.9-0.44s2.17,0.15,2.9,0.44
			c0.73,0.29,1.23,0.8,1.52,1.52c0.29,0.72,0.46,1.37,0.52,1.92c0.06,0.56,0.09,1.39,0.09,2.5v43.29c0,1.11-0.03,1.95-0.09,2.5
			c-0.06,0.56-0.24,1.17-0.54,1.85c-0.57,1.31-2.19,1.96-4.85,1.96c-2.66,0-4.14-1.18-4.44-3.55c-1.61,2.32-3.84,3.48-6.71,3.48
			c-3.44,0-6.58-1.9-9.4-5.69c-2.83-3.79-4.24-8.22-4.24-13.27c0-5.05,1.42-9.49,4.27-13.31c2.85-3.82,5.97-5.73,9.37-5.73
			c2.83,0,5.03,1.21,6.59,3.63v-15.23c0-1.11,0.03-1.95,0.09-2.5C738.52,292.17,738.69,291.54,738.98,290.84z M729.66,330.25
			c0.99,1.31,2.2,1.96,3.61,1.96c1.41,0,2.59-0.65,3.53-1.96c0.94-1.31,1.4-2.74,1.4-4.31c0-1.57-0.45-3.03-1.35-4.39
			c-0.9-1.35-2.11-2.03-3.64-2.03c-1.53,0-2.75,0.67-3.67,1.99c-0.92,1.33-1.38,2.79-1.38,4.39
			C728.17,327.49,728.67,328.94,729.66,330.25z"/>
		<path class="st5" d="M766.41,344.82c-3.86,0-7.06-1.85-9.6-5.55c-2.54-3.7-3.81-8.2-3.81-13.52v-12.69c0-1.16,0.03-2.01,0.09-2.54
			c0.06-0.53,0.22-1.16,0.49-1.89c0.53-1.31,2.03-1.96,4.47-1.96c2.68,0,4.24,0.92,4.7,2.76c0.23,0.77,0.34,2.01,0.34,3.7v12.69
			c0,1.98,0.45,3.53,1.35,4.64c0.9,1.11,2.1,1.67,3.61,1.67c1.51,0,2.73-0.58,3.67-1.74c0.94-1.16,1.4-2.68,1.4-4.57v-12.83
			c0-1.11,0.03-1.95,0.09-2.5c0.06-0.55,0.24-1.2,0.54-1.92c0.5-1.26,1.97-1.89,4.41-1.89c2.41,0,3.88,0.65,4.42,1.96
			c0.27,0.72,0.43,1.37,0.49,1.92c0.06,0.56,0.09,1.39,0.09,2.5v25.67c0,1.06-0.03,1.87-0.09,2.43c-0.06,0.56-0.24,1.17-0.54,1.85
			c-0.57,1.26-2.05,1.89-4.41,1.89c-2.33,0-3.77-0.58-4.3-1.74c-0.38-0.82-0.57-1.81-0.57-2.97c-0.15,0.34-0.5,0.82-1.03,1.45
			c-0.54,0.63-1.05,1.16-1.55,1.6C769.36,344.29,767.94,344.82,766.41,344.82z"/>
		<path class="st5" d="M804.49,306.9c3.82,0,7,1.84,9.55,5.51c2.54,3.67,3.81,8.17,3.81,13.49v12.76c0,1.11-0.03,1.95-0.09,2.5
			c-0.06,0.56-0.24,1.2-0.54,1.92c-0.5,1.26-1.97,1.89-4.42,1.89c-2.33,0-3.78-0.63-4.36-1.89c-0.31-0.73-0.49-1.38-0.54-1.96
			c-0.06-0.58-0.09-1.45-0.09-2.61v-12.69c0-1.98-0.44-3.53-1.32-4.64c-0.88-1.11-2-1.67-3.35-1.67c-1.36,0-2.55,0.52-3.58,1.56
			c-1.03,1.04-1.63,2.21-1.78,3.52v14.07c0,1.11-0.03,1.95-0.09,2.5c-0.06,0.56-0.24,1.2-0.54,1.92c-0.5,1.26-1.97,1.89-4.41,1.89
			c-2.41,0-3.88-0.65-4.41-1.96c-0.27-0.73-0.43-1.35-0.49-1.89c-0.06-0.53-0.09-1.38-0.09-2.54v-43.36c0-1.11,0.03-1.95,0.09-2.5
			c0.06-0.56,0.22-1.17,0.49-1.85c0.53-1.31,2.03-1.96,4.47-1.96c2.41,0,3.86,0.65,4.36,1.96c0.31,0.72,0.49,1.37,0.54,1.92
			c0.06,0.56,0.09,1.39,0.09,2.5v16.02C799.69,308.37,801.92,306.9,804.49,306.9z"/>
		<path class="st4" d="M630.64,336.83c-0.73-0.58-1.09-1.5-1.09-2.76c0-1.26,0.73-3.17,2.18-5.73c0.42-0.82,1.1-1.23,2.04-1.23
			c0.94,0,2.21,0.59,3.81,1.78c1.61,1.19,3.06,1.78,4.36,1.78c2.33,0,3.5-0.58,3.5-1.74c0-0.92-1.28-1.6-3.84-2.03
			c-2.41-0.44-4.8-1.57-7.17-3.41c-1.11-0.87-2.03-2.24-2.75-4.1c-0.73-1.86-1.09-4.07-1.09-6.63c0-7.64,4.15-11.46,12.44-11.46
			c2.71,0,5.5,0.82,8.37,2.47c1.34,0.77,2.01,1.74,2.01,2.9c0,1.16-0.42,2.59-1.26,4.28c-0.84,1.69-1.7,2.54-2.58,2.54
			c-0.46,0-1.31-0.36-2.55-1.09c-1.24-0.73-2.59-1.09-4.04-1.09c-2.26,0-3.38,0.53-3.38,1.59c0,1.45,1.3,2.39,3.9,2.83
			c2.52,0.34,4.97,1.26,7.34,2.76c1.11,0.68,2.04,1.85,2.78,3.52c0.75,1.67,1.12,3.76,1.12,6.27c0,2.51-0.37,4.65-1.12,6.42
			c-0.75,1.77-1.79,3.08-3.13,3.95c-2.45,1.5-5.51,2.25-9.2,2.25C637.59,340.89,634.04,339.53,630.64,336.83z"/>
		<path class="st4" d="M662.4,306.81c3.21-3.77,6.88-5.66,11.01-5.66c4.13,0,7.78,1.87,10.95,5.62c3.17,3.75,4.76,8.52,4.76,14.32
			c0,4.01-0.82,7.58-2.47,10.69c-1.64,3.12-3.64,5.41-5.99,6.89c-2.35,1.48-4.79,2.21-7.31,2.21c-2.52,0-4.97-0.78-7.34-2.36
			c-2.37-1.57-4.37-3.89-5.99-6.96c-1.63-3.07-2.44-6.54-2.44-10.41C657.59,315.36,659.19,310.58,662.4,306.81z M669.57,326.35
			c1.22,1.19,2.47,1.78,3.73,1.78c1.26,0,2.52-0.6,3.78-1.81c1.26-1.21,1.89-3,1.89-5.37c0-2.37-0.59-4.13-1.78-5.29
			c-1.19-1.16-2.47-1.74-3.84-1.74c-1.38,0-2.66,0.6-3.84,1.81c-1.19,1.21-1.78,2.99-1.78,5.33
			C667.74,323.4,668.35,325.16,669.57,326.35z"/>
		<path class="st4" d="M690.41,328.85c0.32-0.77,0.87-1.32,1.63-1.63c0.76-0.31,1.99-0.47,3.67-0.47c1.68,0,2.9,0.47,3.64,1.41
			c0.75,0.94,1.12,2.77,1.12,5.47c0,1.02-0.06,1.96-0.17,2.83c-0.34,4.11-1.41,7.69-3.21,10.73c-1.8,3.05-3.9,4.57-6.31,4.57
			c-0.27,0-0.51-0.25-0.72-0.76c-0.21-0.51-0.32-1.16-0.32-1.96c0-0.8,0.09-1.44,0.26-1.92c0.17-0.48,0.39-0.79,0.66-0.91
			c0.27-0.12,0.54-0.32,0.83-0.58c0.29-0.27,0.68-0.91,1.18-1.92c0.5-1.02,0.78-2.18,0.86-3.48c-1.22-0.19-2.17-0.71-2.84-1.56
			c-0.67-0.84-0.99-2.22-0.97-4.13c0.02-1.91,0.06-3.14,0.11-3.7C689.9,330.29,690.09,329.62,690.41,328.85z"/>
		<path class="st4" d="M738.98,286.11c0.29-0.7,0.79-1.2,1.52-1.49c0.73-0.29,1.69-0.44,2.9-0.44s2.17,0.15,2.9,0.44
			c0.73,0.29,1.23,0.8,1.52,1.52c0.29,0.72,0.46,1.37,0.52,1.92c0.06,0.56,0.09,1.39,0.09,2.5v43.29c0,1.11-0.03,1.95-0.09,2.5
			c-0.06,0.56-0.24,1.17-0.54,1.85c-0.57,1.31-2.19,1.96-4.85,1.96c-2.66,0-4.14-1.18-4.44-3.55c-1.61,2.32-3.84,3.48-6.71,3.48
			c-3.44,0-6.58-1.9-9.4-5.69c-2.83-3.79-4.24-8.22-4.24-13.27c0-5.05,1.42-9.49,4.27-13.31c2.85-3.82,5.97-5.73,9.37-5.73
			c2.83,0,5.03,1.21,6.59,3.63v-15.23c0-1.11,0.03-1.95,0.09-2.5C738.52,287.44,738.69,286.81,738.98,286.11z M729.66,325.51
			c0.99,1.31,2.2,1.96,3.61,1.96c1.41,0,2.59-0.65,3.53-1.96c0.94-1.31,1.4-2.74,1.4-4.31c0-1.57-0.45-3.03-1.35-4.39
			c-0.9-1.35-2.11-2.03-3.64-2.03c-1.53,0-2.75,0.67-3.67,1.99c-0.92,1.33-1.38,2.79-1.38,4.39
			C728.17,322.76,728.67,324.21,729.66,325.51z"/>
		<path class="st4" d="M766.41,340.09c-3.86,0-7.06-1.85-9.6-5.55c-2.54-3.7-3.81-8.2-3.81-13.52v-12.69c0-1.16,0.03-2.01,0.09-2.54
			c0.06-0.53,0.22-1.16,0.49-1.89c0.53-1.31,2.03-1.96,4.47-1.96c2.68,0,4.24,0.92,4.7,2.76c0.23,0.77,0.34,2.01,0.34,3.7v12.69
			c0,1.98,0.45,3.53,1.35,4.64c0.9,1.11,2.1,1.67,3.61,1.67c1.51,0,2.73-0.58,3.67-1.74c0.94-1.16,1.4-2.68,1.4-4.57v-12.83
			c0-1.11,0.03-1.95,0.09-2.5c0.06-0.55,0.24-1.2,0.54-1.92c0.5-1.26,1.97-1.89,4.41-1.89c2.41,0,3.88,0.65,4.42,1.96
			c0.27,0.72,0.43,1.37,0.49,1.92c0.06,0.56,0.09,1.39,0.09,2.5V334c0,1.06-0.03,1.87-0.09,2.43c-0.06,0.56-0.24,1.17-0.54,1.85
			c-0.57,1.26-2.05,1.89-4.41,1.89c-2.33,0-3.77-0.58-4.3-1.74c-0.38-0.82-0.57-1.81-0.57-2.97c-0.15,0.34-0.5,0.82-1.03,1.45
			c-0.54,0.63-1.05,1.16-1.55,1.6C769.36,339.56,767.94,340.09,766.41,340.09z"/>
		<path class="st4" d="M804.49,302.17c3.82,0,7,1.84,9.55,5.51c2.54,3.67,3.81,8.17,3.81,13.49v12.76c0,1.11-0.03,1.95-0.09,2.5
			c-0.06,0.56-0.24,1.2-0.54,1.92c-0.5,1.26-1.97,1.89-4.42,1.89c-2.33,0-3.78-0.63-4.36-1.89c-0.31-0.73-0.49-1.38-0.54-1.96
			c-0.06-0.58-0.09-1.45-0.09-2.61v-12.69c0-1.98-0.44-3.53-1.32-4.64c-0.88-1.11-2-1.67-3.35-1.67c-1.36,0-2.55,0.52-3.58,1.56
			c-1.03,1.04-1.63,2.21-1.78,3.52v14.07c0,1.11-0.03,1.95-0.09,2.5c-0.06,0.56-0.24,1.2-0.54,1.92c-0.5,1.26-1.97,1.89-4.41,1.89
			c-2.41,0-3.88-0.65-4.41-1.96c-0.27-0.73-0.43-1.35-0.49-1.89c-0.06-0.53-0.09-1.38-0.09-2.54v-43.36c0-1.11,0.03-1.95,0.09-2.5
			c0.06-0.56,0.22-1.17,0.49-1.85c0.53-1.31,2.03-1.96,4.47-1.96c2.41,0,3.86,0.65,4.36,1.96c0.31,0.72,0.49,1.37,0.54,1.92
			c0.06,0.56,0.09,1.39,0.09,2.5v16.02C799.69,303.64,801.92,302.17,804.49,302.17z"/>
		<path class="st4" d="M823.01,329.18c0.38-0.94,0.96-1.58,1.75-1.92c0.78-0.34,2.01-0.51,3.67-0.51c1.66,0,2.87,0.46,3.61,1.38
			c0.75,0.92,1.12,2.37,1.12,4.35v1.16c0,1.16-0.03,2.02-0.09,2.57c-0.06,0.56-0.24,1.22-0.54,1.99c-0.61,1.4-2.07,2.1-4.39,2.1
			c-2.31,0-3.84-0.47-4.59-1.41c-0.74-0.94-1.12-2.77-1.12-5.47C822.43,331.53,822.62,330.12,823.01,329.18z M830.69,320.73
			c-0.73,0.24-1.7,0.36-2.92,0.36c-1.22,0-2.2-0.12-2.92-0.36c-0.73-0.24-1.23-0.68-1.52-1.31c-0.29-0.63-0.46-1.18-0.52-1.67
			c-0.06-0.48-0.09-1.23-0.09-2.25v-22.99c0-1.02,0.03-1.78,0.09-2.28c0.06-0.51,0.24-1.08,0.54-1.7c0.31-0.63,0.82-1.08,1.55-1.34
			c0.73-0.27,1.7-0.4,2.92-0.4c1.22,0,2.2,0.13,2.92,0.4c0.73,0.27,1.23,0.72,1.52,1.38c0.29,0.65,0.46,1.23,0.52,1.74
			c0.06,0.51,0.09,1.27,0.09,2.28v22.99c0,1.02-0.03,1.77-0.09,2.25c-0.06,0.48-0.24,1.03-0.54,1.63
			C831.93,320.07,831.41,320.49,830.69,320.73z"/>
	</g>
</g>
</svg>
