<?xml version="1.0" encoding="utf-8"?>
<!-- Generator: Adobe Illustrator 26.3.1, SVG Export Plug-In . SVG Version: 6.00 Build 0)  -->
<svg version="1.1" id="Layer_1" xmlns="http://www.w3.org/2000/svg" xmlns:xlink="http://www.w3.org/1999/xlink" x="0px" y="0px"
	 viewBox="0 0 1920 1080" style="enable-background:new 0 0 1920 1080;" xml:space="preserve">
<style type="text/css">
	.st0{fill:#E9B6C0;}
	.st1{fill:#ACDEE2;}
	.st2{fill:#F06875;}
	.st3{fill:#FFD54B;}
	.st4{fill:#222458;}
	.st5{fill:#ED2D4B;}
	.st6{fill:#E1F2F3;}
	.st7{fill:#F2D7DE;}
</style>
<g>
	<path class="st0" d="M602.73,420.22c5.01,5.7,10.05,11.43,15.04,17.11c2.02,2.35,4.04,4.7,6.07,7
		c36.2,41.91,67.91,82.16,74.44,101.18c0,0-2.1,27.28-29.08,50.2c-25.08,24.97-52.47,24.82-52.47,24.82
		c-22.85-10.06-75.03-61.45-122.59-111.69c-4.57-4.82-9.11-9.66-13.54-14.42c-5.01-5.34-9.92-10.63-14.66-15.79
		c-5.95-6.46-11.68-12.75-17.14-18.74c-10.03-11.03-19.99-22.12-29.87-33.29c-3.53-3.99-7.05-7.99-10.54-12
		c-4.52-5.19-8.98-9.79-11.86-16.19c-0.23-0.52-0.46-1.04-0.67-1.57c-3.15-7.79-4.04-16.2-5.27-24.44
		c-1.23-8.25-2.66-16.44-3.75-24.72c-0.34-2.62-4.01-5.49-5.71-7.53c-2.34-2.81-4.6-5.68-6.84-8.57
		c-5.6-7.24-11.03-14.62-16.4-22.04c-10.43-14.41-20.64-28.98-30.74-43.63c-1.77-2.56-3.53-5.13-5.29-7.7
		c-0.33-0.48-1.32-2.6-1.9-2.79c-9.41-2.99-12.58-9.61-13.65-13.99c-0.57-2.48-0.52-4.24-0.52-4.24l-6.34,5.83l-9.33-20.05
		l39.23-36.09l19.2,10.97l-6.36,5.85c0,0,1.88,0.08,4.39,0.95c4.27,1.48,10.43,5.21,12.61,14.67c0,0,27.22,22.05,51.24,42.73
		c11.28,9.69,22.73,19.38,32.88,30.27c0.28,0.3,0.56,0.6,0.9,0.82c0.48,0.31,1.04,0.43,1.6,0.56c11.67,2.58,23.24,5.95,34.93,8.33
		c14.82,3.01,23.88,12.65,33.92,23.07c8.12,8.42,16.18,16.91,24.19,25.43c3.71,3.94,7.61,8.12,11.69,12.46
		c2.58,2.81,5.23,5.64,7.93,8.57C572.4,386.56,587.58,403.21,602.73,420.22z"/>
	<path class="st1" d="M410.45,262c-0.03,0.02-0.03,0.02-0.03,0.07c-14.49,23.27-35.31,39-51.63,48.61
		C340.07,284.84,320,255.38,320,255.38c-9.39-2.97-12.56-9.58-13.66-13.94c-0.59-2.51-0.52-4.29-0.52-4.29l-6.34,5.83l-9.33-20.05
		l39.23-36.09l0.89,0.52l18.31,10.45l-6.36,5.85c0,0,1.83,0.08,4.37,0.93c4.27,1.48,10.48,5.21,12.64,14.69
		C359.23,219.29,386.4,241.34,410.45,262z"/>
</g>
<path class="st2" d="M602.73,420.22c-4.81,0.91-8.97,1.96-10.16,4.95c-2.88,7.32,16.08,15.97,12.92,23.59
	c-2.71,6.61-18.78,4.47-24.9,15.42c-0.29,0.54-1.72,3.16-1.96,6.66c-0.78,11.31,12.16,14.02,11.73,22.7
	c-0.32,6.4-7.72,14.13-14.92,15.81c-13.33,3.06-23.6-15.34-30.29-11.26c-3.76,2.3-1.54,8.73-7.27,13.16
	c-3.09,2.42-8.29,4.06-11.59,2.29c-4.36-2.37-1.96-9.07-7.48-12.41c-1.15-0.7-3.2-1.92-5.25-1.13c-2.99,1.13-3.66,5.73-7.35,6.95
	c-0.42,0.15-1.07,0.34-1.84,0.21c-1.51-0.23-1.65-1.49-3.18-2.3c-0.26-0.13-1.89-0.99-3.5-0.44c-2.25,0.73-3.24,3.67-3.51,4.34
	c-0.03,0.02,0,0.05-0.03,0.07c-4.57-4.82-9.11-9.66-13.54-14.42c2.17-2.37,3.56-5.03,3.07-8.42c-1.5-10.83-11.03-9.88-17.37-7.52
	c-0.1,0.04-0.24,0.09-0.37,0.15c-5.95-6.46-11.68-12.75-17.14-18.74c6.22-4.1,12.56-7.72,14.6-12.23
	c4.56-9.93-20.17-12.02-10.27-27.46c8.17-12.74,11.95-8.08,19-10.31c2.61-0.78,3.92-1.52,5.02-2.54c0.18-0.16,2.43-2.33,2.92-5.23
	c0.96-5.6-5.97-7.04-6.11-13.43c-0.07-3.4,1.66-6.24,3.45-8.67c3.83-5.24,7.61-8.07,11.33-9.31c9.68-3.26,12.81,5.33,21.87,3.56
	c12.56-2.44,16.77-21.44,28.26-23.73c3.71,3.94,7.61,8.12,11.69,12.46c-0.37,4.22-1.23,8.21,0.43,9.87c1.74,1.69,4.35,0.81,7.5-1.3
	C572.4,386.56,587.58,403.21,602.73,420.22z"/>
<ellipse transform="matrix(0.736 -0.677 0.677 0.736 -216.3967 481.5563)" class="st3" cx="509.17" cy="518.21" rx="3.12" ry="3.14"/>
<ellipse transform="matrix(0.736 -0.677 0.677 0.736 -197.9989 505.5402)" class="st3" cx="549.12" cy="506.61" rx="2.08" ry="2.1"/>
<ellipse transform="matrix(0.736 -0.677 0.677 0.736 -210.9169 506.4261)" class="st4" cx="543.8" cy="523.62" rx="3.46" ry="3.49"/>
<ellipse transform="matrix(0.736 -0.677 0.677 0.736 -199.8365 523.5753)" class="st5" cx="571.32" cy="517.99" rx="3.98" ry="4.02"/>
<ellipse transform="matrix(0.736 -0.677 0.677 0.736 -161.147 410.4763)" class="st3" cx="445.67" cy="411.83" rx="6.23" ry="6.29"/>
<ellipse transform="matrix(0.736 -0.677 0.677 0.736 -181.3984 423.7976)" class="st3" cx="452.62" cy="444.46" rx="5.2" ry="5.24"/>
<ellipse transform="matrix(0.736 -0.677 0.677 0.736 -146.0188 422.9684)" class="st4" cx="469.25" cy="398.69" rx="1.67" ry="1.68"/>
<ellipse transform="matrix(0.736 -0.677 0.677 0.736 -117.7453 421.8912)" class="st5" cx="482.01" cy="361.9" rx="1.56" ry="1.57"/>
<ellipse transform="matrix(0.736 -0.677 0.677 0.736 -109.1794 439.6421)" class="st3" cx="509.05" cy="359.79" rx="3.95" ry="3.98"/>
<ellipse transform="matrix(0.736 -0.677 0.677 0.736 -176.3766 413.5385)" class="st4" cx="441.98" cy="432.89" rx="2.6" ry="2.62"/>
<ellipse transform="matrix(0.736 -0.677 0.677 0.736 -165.5787 531.157)" class="st3" cx="598.17" cy="477.86" rx="3.11" ry="3.14"/>
<path class="st4" d="M617.77,437.33c2.02,2.35,4.04,4.7,6.07,7c-0.22,1.22-0.82,2.38-1.77,3.25c-2.4,2.21-6.13,2.03-8.34-0.37
	c-2.24-2.43-2.1-6.16,0.3-8.37C615.07,437.87,616.39,437.34,617.77,437.33z"/>
<path class="st4" d="M597.57,471.06c0,0-0.68,0.63-1.53,1.41c-0.84,0.78-1.53,1.41-1.53,1.41s0.68-0.63,1.53-1.41
	C596.88,471.69,597.57,471.06,597.57,471.06z"/>
<ellipse transform="matrix(0.736 -0.677 0.677 0.736 -155.6786 524.3132)" class="st5" cx="594.35" cy="461.74" rx="2.38" ry="2.4"/>
<ellipse transform="matrix(0.736 -0.677 0.677 0.736 -167.321 439.4341)" class="st4" cx="479.71" cy="434.23" rx="7.62" ry="7.68"/>
<ellipse transform="matrix(0.736 -0.677 0.677 0.736 -189.3359 484.4082)" class="st3" cx="526.36" cy="484.94" rx="4.68" ry="4.72"/>
<ellipse transform="matrix(0.736 -0.677 0.677 0.736 -162.6959 457.038)" class="st5" cx="504.59" cy="437.1" rx="3.81" ry="3.84"/>
<ellipse transform="matrix(0.736 -0.677 0.677 0.736 -126.215 455.8818)" class="st5" cx="521.35" cy="389.75" rx="3.98" ry="4.02"/>
<ellipse transform="matrix(0.736 -0.677 0.677 0.736 -135.5475 504.9995)" class="st3" cx="579.65" cy="426.28" rx="3.95" ry="3.98"/>
<ellipse transform="matrix(0.736 -0.677 0.677 0.736 -114.6583 471.4301)" class="st5" cx="547.06" cy="382.71" rx="1.56" ry="1.57"/>
<ellipse transform="matrix(0.736 -0.677 0.677 0.736 -172.4743 496.4772)" class="st4" cx="550.26" cy="469.36" rx="5.89" ry="5.94"/>
<ellipse transform="matrix(0.736 -0.677 0.677 0.736 -150.7597 500.7762)" class="st5" cx="566.63" cy="443.67" rx="2.38" ry="2.4"/>
<ellipse transform="matrix(0.736 -0.677 0.677 0.736 -145.6994 454.9636)" class="st3" cx="510.43" cy="414.27" rx="1.43" ry="1.44"/>
<ellipse transform="matrix(0.736 -0.677 0.677 0.736 -133.1111 431.6085)" class="st3" cx="486.78" cy="386.46" rx="4.68" ry="4.72"/>
<ellipse transform="matrix(0.736 -0.677 0.677 0.736 -181.5204 517.9897)" class="st5" cx="573.32" cy="491.71" rx="1.56" ry="1.57"/>
<path class="st3" d="M576.08,404.03c-0.22-0.59-0.23-1.12-0.02-1.61c0.21-0.48,0.7-1.07,1.45-1.76c0.75-0.69,1.49-0.98,2.21-0.88
	c0.72,0.11,1.5,0.62,2.33,1.52l0.49,0.53c0.49,0.53,0.84,0.93,1.04,1.21c0.21,0.28,0.4,0.66,0.59,1.14c0.31,0.9-0.06,1.82-1.1,2.79
	c-1.05,0.96-1.94,1.38-2.67,1.26c-0.73-0.12-1.67-0.8-2.81-2.03C576.81,405.34,576.3,404.61,576.08,404.03z M576.01,396.97
	c-0.23,0.41-0.62,0.87-1.17,1.38c-0.55,0.51-1.05,0.86-1.48,1.05c-0.43,0.19-0.84,0.2-1.24,0.04c-0.39-0.17-0.71-0.35-0.93-0.55
	c-0.23-0.2-0.56-0.53-0.98-0.99l-9.65-10.49c-0.43-0.46-0.73-0.82-0.92-1.08c-0.19-0.26-0.34-0.59-0.47-1
	c-0.13-0.41-0.08-0.83,0.14-1.26c0.22-0.42,0.6-0.89,1.16-1.4c0.55-0.51,1.05-0.85,1.49-1.04c0.44-0.18,0.86-0.18,1.27,0
	c0.4,0.18,0.73,0.37,0.96,0.58c0.24,0.21,0.57,0.54,1,1.01l9.65,10.49c0.43,0.46,0.73,0.82,0.91,1.06c0.18,0.24,0.32,0.57,0.44,0.97
	C576.29,396.15,576.24,396.56,576.01,396.97z"/>
<path class="st3" d="M492.2,487.64c-0.57,0.04-1.12-0.23-1.65-0.8c-0.53-0.57-1-1.75-1.42-3.52c-0.15-0.55-0.02-1.02,0.4-1.41
	c0.42-0.39,1.25-0.65,2.47-0.78c1.22-0.13,2.13-0.46,2.72-1c1.06-0.97,1.34-1.72,0.85-2.25c-0.39-0.42-1.25-0.19-2.59,0.67
	c-1.27,0.8-2.83,1.28-4.68,1.43c-0.87,0.06-1.86-0.18-2.97-0.72c-1.11-0.55-2.2-1.41-3.28-2.58c-3.21-3.49-2.93-6.96,0.82-10.41
	c1.23-1.13,2.84-1.92,4.83-2.36c0.93-0.2,1.64-0.04,2.13,0.49s0.9,1.36,1.23,2.48c0.33,1.12,0.3,1.87-0.1,2.23
	c-0.21,0.19-0.75,0.38-1.61,0.57c-0.87,0.19-1.63,0.58-2.29,1.19c-1.02,0.94-1.31,1.65-0.86,2.14c0.61,0.66,1.59,0.55,2.95-0.33
	c1.28-0.9,2.78-1.5,4.48-1.8c0.79-0.15,1.7,0,2.74,0.45c1.04,0.45,2.09,1.25,3.14,2.4c1.06,1.15,1.79,2.28,2.19,3.4
	c0.4,1.12,0.49,2.15,0.24,3.11c-0.48,1.7-1.55,3.32-3.22,4.86C497.05,486.6,494.88,487.45,492.2,487.64z"/>
<path class="st3" d="M493.97,460.7c-0.13-3.06,0.74-5.45,2.61-7.17c1.87-1.72,4.31-2.38,7.32-2c3.01,0.39,5.73,1.91,8.17,4.56
	c1.69,1.83,2.81,3.8,3.38,5.91c0.57,2.11,0.63,3.99,0.18,5.64c-0.44,1.65-1.24,3-2.38,4.05c-1.14,1.05-2.58,1.71-4.31,1.98
	c-1.73,0.27-3.61,0.04-5.64-0.68c-2.03-0.72-3.85-1.97-5.47-3.74C495.39,466.61,494.1,463.76,493.97,460.7z M505.43,466.64
	c1.05,0.03,1.86-0.22,2.43-0.74c0.57-0.53,0.89-1.33,0.95-2.4c0.06-1.08-0.4-2.16-1.4-3.24c-0.99-1.08-2-1.64-3.03-1.68
	c-1.02-0.04-1.85,0.23-2.47,0.81c-0.62,0.57-0.95,1.38-0.98,2.43c-0.03,1.05,0.45,2.1,1.43,3.17
	C503.36,466.05,504.37,466.61,505.43,466.64z"/>
<path class="st3" d="M515.91,459.1c-0.18-0.49-0.16-0.96,0.05-1.43c0.21-0.46,0.7-1.04,1.46-1.74c0.76-0.7,1.51-0.99,2.24-0.87
	c0.73,0.12,1.67,0.8,2.81,2.03c0.43,0.46,0.8,0.92,1.11,1.36c1.57,2.02,2.59,4.1,3.05,6.24c0.47,2.14,0.15,3.71-0.94,4.71
	c-0.12,0.11-0.34,0.1-0.64-0.05c-0.31-0.14-0.63-0.4-0.97-0.76c-0.33-0.36-0.57-0.69-0.69-0.98c-0.13-0.29-0.15-0.52-0.08-0.69
	c0.07-0.17,0.11-0.37,0.13-0.61c0.02-0.24-0.07-0.7-0.27-1.37c-0.2-0.67-0.56-1.32-1.07-1.95c-0.63,0.42-1.28,0.58-1.94,0.47
	c-0.66-0.11-1.38-0.6-2.18-1.48c-0.79-0.88-1.29-1.46-1.5-1.74C516.28,459.97,516.09,459.59,515.91,459.1z"/>
<path class="st3" d="M519.95,419.36c-0.16-0.44-0.14-0.88,0.06-1.31c0.21-0.43,0.58-0.9,1.13-1.4c0.55-0.5,1.04-0.84,1.49-1.01
	c0.45-0.17,0.89-0.15,1.33,0.06c0.43,0.21,0.78,0.43,1.04,0.66c0.26,0.23,0.62,0.6,1.09,1.11l18.18,19.76
	c0.47,0.51,0.8,0.9,1.01,1.18c0.21,0.28,0.38,0.63,0.53,1.07c0.29,0.83-0.17,1.81-1.37,2.91c-1.2,1.11-2.37,1.18-3.5,0.23
	c0.25,1.73-0.28,3.19-1.58,4.38c-1.56,1.43-3.77,1.87-6.65,1.32c-2.87-0.55-5.37-1.98-7.49-4.29c-2.12-2.31-3.34-4.92-3.65-7.85
	c-0.31-2.93,0.3-5.1,1.84-6.52c1.28-1.18,2.78-1.54,4.51-1.09l-6.4-6.95c-0.47-0.51-0.8-0.9-1.01-1.18
	C520.3,420.15,520.11,419.8,519.95,419.36z M532.28,441.23c1,0.18,1.82-0.02,2.46-0.61c0.64-0.59,0.9-1.38,0.77-2.36
	c-0.12-0.99-0.52-1.84-1.18-2.55c-0.66-0.72-1.48-1.2-2.45-1.44c-0.98-0.24-1.81-0.05-2.5,0.59c-0.69,0.64-0.97,1.45-0.82,2.44
	c0.14,0.99,0.55,1.85,1.22,2.58C530.45,440.59,531.28,441.05,532.28,441.23z"/>
<path class="st3" d="M555.04,432.58c-1.75,1.61-3.97,2.1-6.68,1.47c-2.7-0.63-5.17-2.16-7.41-4.59l-5.33-5.79
	c-0.49-0.53-0.83-0.93-1.03-1.19c-0.2-0.27-0.39-0.62-0.57-1.06c-0.31-0.82,0.09-1.74,1.2-2.76c1.21-1.11,2.31-1.35,3.29-0.7
	c0.43,0.26,1,0.77,1.71,1.55l5.33,5.79c0.83,0.91,1.69,1.42,2.56,1.56c0.87,0.13,1.65-0.11,2.34-0.74c0.68-0.63,0.99-1.4,0.93-2.32
	c-0.06-0.92-0.49-1.81-1.28-2.67l-5.39-5.86c-0.47-0.51-0.8-0.9-1.01-1.18c-0.21-0.28-0.39-0.65-0.56-1.1
	c-0.3-0.78,0.1-1.68,1.21-2.7c1.09-1,2.03-1.32,2.82-0.94c0.43,0.22,0.77,0.44,1.03,0.67c0.26,0.23,0.62,0.6,1.09,1.11l10.78,11.72
	c0.45,0.49,0.77,0.87,0.98,1.14c0.21,0.28,0.38,0.64,0.53,1.07c0.27,0.81-0.13,1.71-1.21,2.7c-1.06,0.97-1.95,1.3-2.68,1
	c-0.52-0.22-1.02-0.59-1.51-1.12c0.07,0.22,0.12,0.58,0.14,1.09c0.02,0.51,0.01,0.97-0.03,1.37
	C556.15,431.11,555.73,431.94,555.04,432.58z"/>
<path class="st3" d="M556.35,399.41c1.73-1.59,3.94-2.08,6.64-1.46c2.69,0.62,5.16,2.14,7.39,4.57l5.36,5.83
	c0.47,0.51,0.8,0.9,1.01,1.18c0.21,0.28,0.39,0.65,0.56,1.1c0.3,0.78-0.1,1.68-1.21,2.7c-1.06,0.97-1.98,1.29-2.76,0.95
	c-0.44-0.2-0.8-0.43-1.07-0.67c-0.27-0.24-0.65-0.63-1.14-1.16l-5.33-5.79c-0.83-0.9-1.68-1.43-2.55-1.57
	c-0.87-0.14-1.61,0.07-2.22,0.64c-0.61,0.57-0.94,1.3-0.97,2.2c-0.03,0.9,0.19,1.69,0.67,2.35l5.91,6.42
	c0.47,0.51,0.8,0.9,1.01,1.18c0.21,0.28,0.39,0.65,0.56,1.1c0.3,0.78-0.1,1.68-1.21,2.7c-1.09,1-2.03,1.32-2.82,0.94
	c-0.43-0.22-0.76-0.44-1.01-0.66c-0.25-0.22-0.62-0.59-1.1-1.12l-18.21-19.8c-0.47-0.51-0.8-0.9-1.01-1.18
	c-0.21-0.28-0.39-0.63-0.56-1.05c-0.31-0.82,0.09-1.74,1.2-2.76c1.09-1,2.02-1.31,2.8-0.92c0.44,0.2,0.79,0.42,1.05,0.65
	c0.26,0.23,0.62,0.6,1.09,1.11l6.73,7.32C554.8,402.08,555.19,400.47,556.35,399.41z"/>
<path class="st4" d="M490.21,485.47c-0.57,0.04-1.12-0.23-1.65-0.8c-0.53-0.57-1-1.75-1.42-3.52c-0.15-0.55-0.02-1.02,0.4-1.41
	c0.42-0.39,1.25-0.65,2.47-0.78c1.22-0.13,2.13-0.46,2.72-1c1.06-0.97,1.34-1.72,0.85-2.25c-0.39-0.42-1.25-0.19-2.59,0.67
	c-1.27,0.8-2.83,1.28-4.68,1.43c-0.87,0.06-1.86-0.18-2.97-0.72c-1.11-0.55-2.2-1.41-3.28-2.58c-3.21-3.49-2.93-6.96,0.82-10.41
	c1.23-1.13,2.84-1.92,4.83-2.36c0.93-0.2,1.64-0.04,2.13,0.49c0.49,0.53,0.9,1.36,1.23,2.48c0.33,1.12,0.3,1.87-0.1,2.23
	c-0.21,0.19-0.75,0.38-1.61,0.57c-0.87,0.19-1.63,0.58-2.29,1.19c-1.02,0.94-1.31,1.65-0.86,2.14c0.61,0.66,1.59,0.55,2.95-0.33
	c1.28-0.9,2.78-1.5,4.48-1.8c0.79-0.15,1.7,0,2.74,0.45c1.04,0.45,2.09,1.25,3.14,2.4c1.06,1.15,1.79,2.28,2.19,3.4
	c0.4,1.12,0.49,2.15,0.24,3.11c-0.48,1.7-1.55,3.32-3.22,4.86C495.06,484.44,492.89,485.29,490.21,485.47z"/>
<path class="st4" d="M491.99,458.54c-0.13-3.06,0.74-5.45,2.61-7.17c1.87-1.72,4.31-2.38,7.32-2c3.01,0.39,5.73,1.91,8.17,4.56
	c1.69,1.83,2.81,3.8,3.38,5.91c0.57,2.11,0.63,3.99,0.18,5.64c-0.44,1.65-1.24,3-2.38,4.05c-1.14,1.05-2.58,1.71-4.31,1.98
	c-1.73,0.27-3.61,0.04-5.64-0.68c-2.03-0.72-3.85-1.97-5.47-3.74C493.4,464.45,492.12,461.6,491.99,458.54z M503.44,464.48
	c1.05,0.03,1.86-0.22,2.43-0.74c0.57-0.53,0.89-1.33,0.95-2.4c0.06-1.08-0.4-2.16-1.4-3.24c-0.99-1.08-2-1.64-3.03-1.68
	c-1.02-0.04-1.85,0.23-2.47,0.81c-0.62,0.57-0.95,1.38-0.98,2.43c-0.03,1.05,0.45,2.1,1.43,3.17
	C501.37,463.89,502.39,464.45,503.44,464.48z"/>
<path class="st4" d="M513.93,456.94c-0.18-0.49-0.16-0.96,0.05-1.43c0.21-0.46,0.7-1.04,1.46-1.74c0.76-0.7,1.51-0.99,2.24-0.87
	c0.73,0.12,1.67,0.8,2.81,2.03c0.43,0.46,0.8,0.92,1.11,1.36c1.57,2.02,2.59,4.1,3.05,6.24c0.47,2.14,0.15,3.71-0.94,4.71
	c-0.12,0.11-0.34,0.1-0.64-0.05c-0.31-0.14-0.63-0.4-0.97-0.76c-0.33-0.36-0.57-0.69-0.69-0.98c-0.13-0.29-0.15-0.52-0.08-0.69
	c0.07-0.17,0.11-0.37,0.13-0.61c0.02-0.24-0.07-0.7-0.27-1.37c-0.2-0.67-0.56-1.32-1.07-1.95c-0.63,0.42-1.28,0.58-1.94,0.47
	c-0.66-0.11-1.38-0.6-2.18-1.48c-0.79-0.88-1.29-1.46-1.5-1.74C514.3,457.81,514.1,457.43,513.93,456.94z"/>
<path class="st4" d="M517.96,417.2c-0.16-0.44-0.14-0.88,0.06-1.31c0.21-0.43,0.58-0.9,1.13-1.4c0.55-0.5,1.04-0.84,1.49-1.01
	c0.45-0.17,0.89-0.15,1.33,0.06c0.43,0.21,0.78,0.43,1.04,0.66c0.26,0.23,0.62,0.6,1.09,1.11l18.18,19.76
	c0.47,0.51,0.8,0.9,1.01,1.18c0.21,0.28,0.38,0.63,0.53,1.07c0.29,0.83-0.17,1.81-1.37,2.91c-1.2,1.11-2.37,1.18-3.5,0.23
	c0.25,1.73-0.28,3.19-1.58,4.38c-1.56,1.43-3.77,1.87-6.65,1.32c-2.87-0.55-5.37-1.98-7.49-4.29c-2.12-2.31-3.34-4.92-3.65-7.85
	c-0.31-2.93,0.3-5.1,1.84-6.52c1.28-1.18,2.78-1.54,4.51-1.09l-6.4-6.95c-0.47-0.51-0.8-0.9-1.01-1.18
	C518.31,417.99,518.12,417.63,517.96,417.2z M530.29,439.07c1,0.18,1.82-0.02,2.46-0.61c0.64-0.59,0.9-1.38,0.77-2.36
	c-0.12-0.99-0.52-1.84-1.18-2.55c-0.66-0.72-1.48-1.2-2.45-1.44c-0.98-0.24-1.81-0.05-2.5,0.59c-0.69,0.64-0.97,1.45-0.82,2.44
	c0.14,0.99,0.55,1.85,1.22,2.58C528.46,438.43,529.29,438.89,530.29,439.07z"/>
<path class="st4" d="M553.05,430.42c-1.75,1.61-3.97,2.1-6.68,1.47c-2.7-0.63-5.17-2.16-7.41-4.59l-5.33-5.79
	c-0.49-0.53-0.83-0.93-1.03-1.19c-0.2-0.27-0.39-0.62-0.57-1.06c-0.31-0.82,0.09-1.74,1.2-2.76c1.21-1.11,2.31-1.35,3.29-0.7
	c0.43,0.26,1,0.77,1.71,1.55l5.33,5.79c0.83,0.91,1.69,1.42,2.56,1.56c0.87,0.13,1.65-0.11,2.34-0.74c0.68-0.63,0.99-1.4,0.93-2.32
	c-0.06-0.92-0.49-1.81-1.28-2.67l-5.39-5.86c-0.47-0.51-0.8-0.9-1.01-1.18c-0.21-0.28-0.39-0.65-0.56-1.1
	c-0.3-0.78,0.1-1.68,1.21-2.7c1.09-1,2.03-1.32,2.82-0.94c0.43,0.22,0.77,0.44,1.03,0.67c0.26,0.23,0.62,0.6,1.09,1.11l10.78,11.72
	c0.45,0.49,0.77,0.87,0.98,1.14c0.21,0.28,0.38,0.64,0.53,1.07c0.27,0.81-0.13,1.71-1.21,2.7c-1.06,0.97-1.95,1.3-2.68,1
	c-0.52-0.22-1.02-0.59-1.51-1.12c0.07,0.22,0.12,0.58,0.14,1.09c0.02,0.51,0.01,0.97-0.03,1.37
	C554.16,428.95,553.75,429.78,553.05,430.42z"/>
<path class="st4" d="M554.36,397.25c1.73-1.59,3.94-2.08,6.64-1.46c2.69,0.62,5.16,2.14,7.39,4.57l5.36,5.83
	c0.47,0.51,0.8,0.9,1.01,1.18c0.21,0.28,0.39,0.65,0.56,1.1c0.3,0.78-0.1,1.68-1.21,2.7c-1.06,0.97-1.98,1.29-2.76,0.95
	c-0.44-0.2-0.8-0.43-1.07-0.67c-0.27-0.24-0.65-0.63-1.14-1.16l-5.33-5.79c-0.83-0.9-1.68-1.43-2.55-1.57
	c-0.87-0.14-1.61,0.07-2.22,0.64c-0.61,0.57-0.94,1.3-0.97,2.2c-0.03,0.9,0.19,1.69,0.67,2.35l5.91,6.42
	c0.47,0.51,0.8,0.9,1.01,1.18c0.21,0.28,0.39,0.65,0.56,1.1c0.3,0.78-0.1,1.68-1.21,2.7c-1.09,1-2.03,1.32-2.82,0.94
	c-0.43-0.22-0.76-0.44-1.01-0.66c-0.25-0.22-0.62-0.59-1.1-1.12l-18.21-19.8c-0.47-0.51-0.8-0.9-1.01-1.18
	c-0.21-0.28-0.39-0.63-0.56-1.05c-0.31-0.82,0.09-1.74,1.2-2.76c1.09-1,2.02-1.31,2.8-0.92c0.44,0.2,0.79,0.42,1.05,0.65
	c0.26,0.23,0.62,0.6,1.09,1.11l6.73,7.32C552.81,399.92,553.2,398.31,554.36,397.25z"/>
<path class="st4" d="M574.09,401.86c-0.22-0.59-0.23-1.12-0.02-1.61c0.21-0.48,0.7-1.07,1.45-1.76c0.75-0.69,1.49-0.98,2.21-0.88
	c0.72,0.11,1.5,0.62,2.33,1.52l0.49,0.53c0.49,0.53,0.84,0.93,1.04,1.21c0.21,0.28,0.4,0.66,0.59,1.14c0.31,0.9-0.06,1.82-1.1,2.79
	c-1.05,0.96-1.94,1.38-2.67,1.26c-0.73-0.12-1.67-0.8-2.81-2.03C574.82,403.18,574.31,402.45,574.09,401.86z M574.02,394.81
	c-0.23,0.41-0.62,0.87-1.17,1.38c-0.55,0.51-1.05,0.86-1.48,1.05c-0.43,0.19-0.84,0.2-1.24,0.04c-0.39-0.17-0.7-0.35-0.93-0.55
	c-0.23-0.2-0.56-0.53-0.98-0.99l-9.65-10.49c-0.43-0.46-0.73-0.82-0.92-1.08c-0.19-0.26-0.34-0.59-0.47-1
	c-0.13-0.41-0.08-0.83,0.14-1.26c0.22-0.42,0.6-0.89,1.16-1.4c0.55-0.51,1.05-0.85,1.49-1.04c0.44-0.18,0.86-0.18,1.27,0
	c0.4,0.18,0.73,0.37,0.96,0.58c0.24,0.21,0.57,0.54,1,1.01l9.65,10.49c0.43,0.46,0.73,0.82,0.91,1.06c0.18,0.24,0.32,0.57,0.44,0.97
	C574.3,393.99,574.25,394.4,574.02,394.81z"/>
<g>
	<g>
		<path class="st6" d="M340.14,211.87c5.66,0.15,10.57,5.35,10.43,11c-0.02,0.64,0.98,0.64,1,0c0.15-6.2-5.24-11.83-11.43-12
			C339.5,210.85,339.5,211.85,340.14,211.87L340.14,211.87z"/>
	</g>
</g>
<g>
	<g>
		<path class="st6" d="M358.02,230.08c10,7.17,19.51,15.03,28.42,23.51c9.13,8.69,17.35,18.2,25.88,27.46
			c7.88,8.56,16.2,17.48,27,22.3c9.12,4.07,19.1,5.53,28.83,7.39c9.51,1.82,19.32,4.05,27.34,9.76c1.02,0.73,2,1.51,2.93,2.33
			c0.48,0.42,1.19-0.28,0.71-0.71c-7.38-6.49-16.85-9.46-26.3-11.46c-9.79-2.08-19.85-3.26-29.3-6.69
			c-5.16-1.87-9.92-4.51-14.24-7.89c-4.79-3.74-9.08-8.11-13.25-12.51c-8.72-9.21-16.87-18.94-25.93-27.84
			c-8.72-8.56-18.04-16.51-27.84-23.8c-1.24-0.92-2.49-1.83-3.74-2.73C358,228.84,357.5,229.7,358.02,230.08L358.02,230.08z"/>
	</g>
</g>
<g>
	<g>
		<path class="st6" d="M509.75,332.51c0.65,0.71,1.3,1.41,1.95,2.12c0.18,0.19,0.53,0.19,0.71,0c0.19-0.21,0.19-0.5,0-0.71
			c-0.65-0.71-1.3-1.41-1.95-2.12c-0.18-0.19-0.53-0.19-0.71,0C509.56,332.01,509.56,332.3,509.75,332.51L509.75,332.51z"/>
	</g>
</g>
<g>
	<g>
		<path class="st6" d="M521.19,343.29c0.64,0,0.64-1,0-1C520.55,342.29,520.55,343.29,521.19,343.29L521.19,343.29z"/>
	</g>
</g>
<g>
	<g>
		<path class="st6" d="M530.9,353.47c12.22,12.03,24.06,24.43,35.62,37.09c11.56,12.67,22.84,25.59,33.94,38.66
			c11.2,13.18,22.26,26.48,33.18,39.9c10.95,13.47,21.71,27.09,32.08,41.02c5.07,6.8,10.26,13.6,14.85,20.74
			c4.17,6.5,8.09,14.06,7.66,22.01c-0.1,1.9-0.5,3.75-1.12,5.55c-0.21,0.61,0.75,0.87,0.96,0.27c2.55-7.33,0.52-15-2.83-21.71
			c-3.69-7.4-8.87-14.03-13.73-20.68c-10.29-14.09-21-27.86-31.94-41.44c-10.99-13.65-22.17-27.14-33.47-40.54
			c-11.18-13.26-22.53-26.39-34.14-39.27c-11.61-12.88-23.5-25.51-35.76-37.76c-1.52-1.52-3.05-3.04-4.58-4.54
			C531.14,352.31,530.44,353.02,530.9,353.47L530.9,353.47z"/>
	</g>
</g>
<g>
	<g>
		<path class="st6" d="M625.28,610.61c7.54-1.55,14.67-4.7,21.21-8.73c6.86-4.22,13.07-9.4,18.97-14.85
			c3.41-3.16,6.73-6.42,10.05-9.68c0.46-0.45-0.25-1.16-0.71-0.71c-5.8,5.7-11.61,11.41-17.92,16.55
			c-6.02,4.91-12.53,9.29-19.64,12.47c-3.92,1.76-8.02,3.11-12.23,3.98C624.38,609.77,624.65,610.74,625.28,610.61L625.28,610.61z"
			/>
	</g>
</g>
<g>
	<g>
		<path class="st6" d="M681.18,570.68c1.17-1.85,2.35-3.71,3.52-5.56c0.35-0.55-0.52-1.05-0.86-0.5c-1.17,1.85-2.35,3.71-3.52,5.56
			C679.97,570.72,680.83,571.23,681.18,570.68L681.18,570.68z"/>
	</g>
</g>
<g>
	<g>
		<path class="st6" d="M322.32,253.63c3.63-1.55,7.04-3.56,10.16-5.98c3.44-2.68,6.55-5.8,9.75-8.77c1.88-1.74,3.75-3.49,5.63-5.23
			c0.47-0.44-0.24-1.14-0.71-0.71c-3.24,3.01-6.48,6.02-9.71,9.03c-3.04,2.82-6.1,5.54-9.64,7.72c-1.91,1.17-3.91,2.2-5.98,3.08
			C321.22,253.01,321.73,253.88,322.32,253.63L322.32,253.63z"/>
	</g>
</g>
<path class="st0" d="M349.66,196.92c-1.02,2.56-2.04,5.12-3.07,7.68c-0.03,0.02,0,0.05-0.03,0.07c0,0.05-0.05,0.09-0.05,0.14
	c-3.08,1.17-6.17,2.34-9.25,3.52c-1.22,2.79-2.47,5.56-3.7,8.35c-3.05,1.01-6.08,2.03-9.11,3.02c-1.08,2.8-2.14,5.57-3.22,8.37
	c-3.05,1.05-6.11,2.11-9.14,3.14c-1.73,3.35-3.46,6.7-5.19,10.05c-0.17,0.06-0.39,0.13-0.56,0.19l-0.05,0
	c-2.66,0.92-5.33,1.85-8.02,2.75c-2.72-7.08-5.46-14.13-8.17-21.2l39.23-36.09c0.33,0.16,0.61,0.32,0.94,0.47
	C336.72,190.55,343.22,193.74,349.66,196.92z"/>
<path class="st7" d="M329.11,187.1c-1.33,4.04-8,12.22-17.07,20.56c-9.04,8.32-17.72,14.27-21.89,15.28L329.11,187.1z"/>
</svg>
