<?xml version="1.0" encoding="utf-8"?>
<!-- Generator: Adobe Illustrator 26.3.1, SVG Export Plug-In . SVG Version: 6.00 Build 0)  -->
<svg version="1.1" id="Layer_1" xmlns="http://www.w3.org/2000/svg" xmlns:xlink="http://www.w3.org/1999/xlink" x="0px" y="0px"
	 viewBox="0 0 1920 1080" style="enable-background:new 0 0 1920 1080;" xml:space="preserve">
<style type="text/css">
	.st0{fill:#F06875;}
	.st1{fill:#222458;}
	.st2{fill:#FFD54B;}
	.st3{fill:#ED2D4B;}
</style>
<path class="st0" d="M376.78,587.45c0.07,3.71,0.94,7.36,2.58,10.78c3.7,7.72,12.61,22.09,30.59,31.41
	c5.13,2.66,24.82,12.31,49.9,8.37c5.26-0.83,21.43-3.55,34.64-14.71c11.78-9.95,10.43-17.51,23.47-24.52
	c2.89-1.55,15.69-8.43,25.7-3.92c7.28,3.28,10.06,11.21,10.51,12.52c2.66,7.61-0.69,12.28,3.64,17.76c2.23,2.82,5.15,4.17,7.08,5.03
	c16.49,7.37,33.19-6.16,47.11-0.66c9.53,3.76,12.64,14.42,14.35,20.28c8.38,28.72-20.96,43.91-13.41,65.71
	c5.64,16.28,28.64,26.97,46.93,28.44c33.58,2.71,46.36-26,66.49-22.03c35.88,7.07,12.93,101.66,68.36,132.98
	c29.94,16.92,79.77,13.69,100.93-6.99c28.87-28.21-6.85-77.94,31.47-113.95c11.84-11.13,25.08-15.62,27.76-16.49
	c55.61-18.15,103.88,39.49,134.1,25.5c34.82-16.12-2.96-104.81,30.17-120.63c32.51-15.52,88.18,60.61,136.33,45.11
	c32.25-10.38,53.73-59.47,37.99-88.27c-20.26-37.07-95.89-28.92-111.75-69.63c-1.25-3.21-5.75-14.75-1.12-27.46
	c1.1-3.03,6.08-15.34,28.72-27.1c25.79-13.4,40.86-15.08,61.8-15.08c24.58,0,82.69-29.42,62.58-78.46s-189.97-3.92-192.21-47.08
	c-1.09-20.98,57.9-41.82,53.39-79.77c-1.98-16.66-16-27.87-18.75-30.07c-45.96-36.75-124.66,20.55-177.68-11.77
	c-36.59-22.3-20.26-61.34-63.67-80.47c-16.77-7.39-38.55-9.73-68.19-3.88c-13.83,2.73-28.82,7-39.23,18.73
	c-19.74,22.26-0.46,48.85-21.46,64.9c-10.75,8.22-25.34,8.55-26.47,8.56c-6.92,0.08-13.72-1.58-25.26-6.98
	c-31.19-14.61-29.43-42.2-97.66-24.4c-82.69,21.58-4.47,105.92-51.4,125.54c-46.93,19.61-151.98-41.19-198.91,17.65
	c-46.93,58.85,82.69,84.34,111.75,96.11c29.05,11.77,64.81,38.35,35.76,79.98s-98.34-1.52-140.8,29.86
	C379.58,542.98,376.54,574.87,376.78,587.45z"/>
<circle class="st1" cx="1317.46" cy="495.4" r="35.51"/>
<circle class="st2" cx="1365.3" cy="409.42" r="21.79"/>
<circle class="st1" cx="1296.47" cy="300.03" r="20.98"/>
<circle class="st3" cx="1222.24" cy="177.46" r="17.75"/>
<circle class="st3" cx="491.84" cy="439.79" r="21.48"/>
<circle class="st2" cx="539.56" cy="677.77" r="14.53"/>
<circle class="st2" cx="713.14" cy="763.31" r="9.68"/>
<circle class="st1" cx="641.23" cy="804.48" r="16.14"/>
<circle class="st3" cx="753.4" cy="871.44" r="18.56"/>
<circle class="st2" cx="657.37" cy="117.4" r="29.05"/>
<circle class="st2" cx="578.29" cy="250.09" r="24.21"/>
<circle class="st1" cx="779.72" cy="146.45" r="7.76"/>
<circle class="st3" cx="939.52" cy="61.26" r="7.26"/>
<circle class="st2" cx="1038.9" cy="138.69" r="18.41"/>
<circle class="st1" cx="578.29" cy="177.46" r="12.1"/>
<circle class="st3" cx="431.63" cy="250.09" r="12.91"/>
<circle class="st2" cx="972.08" cy="818.97" r="14.49"/>
<circle class="st3" cx="1189.96" cy="699.56" r="7.26"/>
<circle class="st1" cx="1149.47" cy="763.31" r="27.44"/>
<path class="st1" d="M991.45,793.97c0,0-4.34,0-9.68,0c-5.35,0-9.68,0-9.68,0s4.34,0,9.68,0
	C987.11,793.97,991.45,793.97,991.45,793.97z"/>
<circle class="st3" cx="1009.81" cy="752.21" r="11.1"/>
<circle class="st2" cx="1317.46" cy="648.15" r="6.66"/>
<circle class="st1" cx="703.45" cy="300.03" r="35.51"/>
<circle class="st2" cx="703.45" cy="618.41" r="21.79"/>
<circle class="st1" cx="1210.94" cy="599.35" r="20.98"/>
<circle class="st3" cx="779.72" cy="387.64" r="17.75"/>
<circle class="st3" cx="986.57" cy="279.05" r="18.56"/>
<circle class="st2" cx="1071.3" cy="585.64" r="18.41"/>
<circle class="st3" cx="1096.97" cy="335.54" r="7.26"/>
<circle class="st1" cx="834.59" cy="640.2" r="27.44"/>
<circle class="st3" cx="971.78" cy="604.05" r="11.1"/>
<circle class="st2" cx="871.76" cy="328.28" r="6.66"/>
<circle class="st2" cx="878.42" cy="159.71" r="21.79"/>
<circle class="st2" cx="470.37" cy="334.93" r="6.66"/>
<circle class="st3" cx="843.14" cy="788.34" r="7.26"/>
<circle class="st1" cx="444.54" cy="567.23" r="7.26"/>
<path class="st2" d="M1129.24,498.79c1.09-2.7,2.77-4.54,5.01-5.51c2.25-0.97,5.75-1.45,10.52-1.45s8.22,1.32,10.35,3.95
	c2.14,2.63,3.21,6.79,3.21,12.47v3.33c0,3.33-0.08,5.79-0.25,7.38c-0.16,1.59-0.69,3.5-1.56,5.72c-1.75,4.02-5.94,6.03-12.57,6.03
	s-11.01-1.35-13.15-4.05c-2.14-2.7-3.21-7.93-3.21-15.69C1127.59,505.55,1128.14,501.49,1129.24,498.79z M1151.26,474.58
	c-2.08,0.7-4.88,1.04-8.38,1.04c-3.51,0-6.3-0.34-8.38-1.04c-2.08-0.69-3.53-1.94-4.36-3.74c-0.82-1.8-1.32-3.39-1.48-4.78
	c-0.16-1.38-0.25-3.53-0.25-6.44v-65.89c0-2.91,0.08-5.09,0.25-6.55c0.16-1.45,0.68-3.08,1.56-4.88c0.88-1.8,2.35-3.08,4.44-3.85
	c2.08-0.76,4.87-1.14,8.38-1.14c3.51,0,6.3,0.38,8.38,1.14c2.08,0.76,3.53,2.08,4.35,3.95c0.82,1.87,1.32,3.53,1.48,4.99
	c0.16,1.46,0.25,3.64,0.25,6.55v65.89c0,2.91-0.08,5.06-0.25,6.44c-0.16,1.39-0.69,2.95-1.56,4.68
	C1154.82,472.67,1153.34,473.88,1151.26,474.58z"/>
<path class="st2" d="M577.8,520.72c-2.08-1.66-3.12-4.29-3.12-7.9c0-3.6,2.08-9.07,6.25-16.42c1.2-2.35,3.15-3.53,5.84-3.53
	c2.68,0,6.33,1.7,10.93,5.09c4.6,3.4,8.77,5.09,12.49,5.09c6.68,0,10.03-1.66,10.03-4.99c0-2.63-3.67-4.57-11.01-5.82
	c-6.9-1.25-13.75-4.5-20.55-9.77c-3.18-2.49-5.81-6.41-7.89-11.74c-2.08-5.33-3.12-11.67-3.12-19.02
	c0-21.89,11.89-32.84,35.67-32.84c7.78,0,15.78,2.36,24,7.07c3.83,2.22,5.75,4.99,5.75,8.31c0,3.33-1.21,7.41-3.62,12.26
	c-2.41,4.85-4.88,7.28-7.4,7.28c-1.31,0-3.75-1.04-7.31-3.12c-3.56-2.08-7.42-3.12-11.59-3.12c-6.47,0-9.7,1.53-9.7,4.57
	c0,4.16,3.72,6.86,11.18,8.11c7.23,0.97,14.24,3.6,21.04,7.9c3.18,1.94,5.83,5.3,7.97,10.08c2.14,4.78,3.2,10.78,3.2,17.98
	c0,7.21-1.07,13.34-3.2,18.39c-2.14,5.06-5.12,8.83-8.96,11.33c-7.01,4.3-15.81,6.44-26.38,6.44
	C597.71,532.36,587.55,528.48,577.8,520.72z"/>
<path class="st2" d="M668.86,434.67c9.2-10.81,19.72-16.21,31.56-16.21c11.83,0,22.3,5.37,31.39,16.11
	c9.09,10.74,13.64,24.42,13.64,41.05c0,11.5-2.36,21.72-7.07,30.66c-4.71,8.94-10.44,15.52-17.18,19.75
	c-6.74,4.23-13.72,6.34-20.96,6.34c-7.23,0-14.25-2.25-21.04-6.75c-6.8-4.5-12.52-11.15-17.18-19.95
	c-4.66-8.8-6.99-18.74-6.99-29.83C655.05,459.2,659.65,445.48,668.86,434.67z M689.4,490.69c3.51,3.4,7.07,5.09,10.68,5.09
	c3.62,0,7.23-1.73,10.85-5.2c3.62-3.46,5.42-8.59,5.42-15.38c0-6.79-1.7-11.85-5.1-15.17c-3.4-3.33-7.07-4.99-11.01-4.99
	c-3.95,0-7.62,1.73-11.01,5.2c-3.4,3.46-5.1,8.56-5.1,15.28C684.14,482.24,685.89,487.29,689.4,490.69z"/>
<path class="st2" d="M749.15,497.86c0.93-2.22,2.49-3.77,4.68-4.68c2.19-0.9,5.7-1.35,10.52-1.35c4.82,0,8.3,1.35,10.44,4.05
	c2.14,2.7,3.2,7.93,3.2,15.69c0,2.91-0.16,5.61-0.49,8.11c-0.99,11.78-4.06,22.03-9.21,30.76c-5.15,8.73-11.18,13.09-18.08,13.09
	c-0.77,0-1.45-0.73-2.05-2.18c-0.6-1.45-0.9-3.32-0.9-5.61c0-2.29,0.25-4.12,0.74-5.51c0.49-1.39,1.12-2.25,1.89-2.6
	c0.77-0.35,1.56-0.9,2.38-1.66c0.82-0.76,1.94-2.6,3.37-5.51c1.42-2.91,2.24-6.24,2.47-9.98c-3.51-0.55-6.22-2.04-8.14-4.47
	c-1.92-2.42-2.85-6.37-2.79-11.85c0.05-5.47,0.16-9.01,0.33-10.6C747.67,501.98,748.22,500.07,749.15,497.86z"/>
<path class="st2" d="M888.36,375.33c0.82-2.01,2.27-3.43,4.36-4.26c2.08-0.83,4.85-1.25,8.3-1.25s6.22,0.42,8.3,1.25
	c2.08,0.83,3.53,2.29,4.36,4.37c0.82,2.08,1.31,3.92,1.48,5.51c0.16,1.59,0.25,3.99,0.25,7.17V512.2c0,3.19-0.08,5.58-0.25,7.17
	c-0.16,1.6-0.69,3.36-1.56,5.3c-1.64,3.74-6.27,5.61-13.89,5.61c-7.62,0-11.86-3.39-12.74-10.19c-4.6,6.65-11.01,9.98-19.23,9.98
	c-9.86,0-18.85-5.44-26.96-16.32c-8.11-10.88-12.16-23.56-12.16-38.04c0-14.48,4.08-27.19,12.24-38.14
	c8.16-10.95,17.12-16.42,26.87-16.42c8.11,0,14.41,3.46,18.9,10.39V387.9c0-3.19,0.08-5.58,0.25-7.17
	C887.05,379.14,887.54,377.34,888.36,375.33z M861.65,488.3c2.85,3.74,6.3,5.61,10.36,5.61c4.05,0,7.42-1.87,10.11-5.61
	c2.68-3.74,4.03-7.86,4.03-12.37c0-4.5-1.29-8.69-3.86-12.58c-2.58-3.88-6.06-5.82-10.44-5.82c-4.38,0-7.89,1.91-10.52,5.72
	c-2.63,3.81-3.94,8-3.94,12.58C857.38,480.4,858.8,484.55,861.65,488.3z"/>
<path class="st2" d="M967.01,530.07c-11.07,0-20.25-5.3-27.53-15.9c-7.29-10.6-10.93-23.52-10.93-38.77v-36.38
	c0-3.33,0.08-5.75,0.25-7.28c0.16-1.52,0.63-3.33,1.4-5.4c1.53-3.74,5.81-5.61,12.82-5.61c7.67,0,12.16,2.63,13.48,7.9
	c0.66,2.22,0.99,5.75,0.99,10.6v36.38c0,5.68,1.29,10.12,3.86,13.3c2.57,3.19,6.03,4.78,10.36,4.78c4.33,0,7.83-1.66,10.52-4.99
	c2.68-3.33,4.03-7.69,4.03-13.09v-36.79c0-3.19,0.08-5.58,0.25-7.17c0.16-1.59,0.68-3.43,1.56-5.51c1.42-3.6,5.64-5.4,12.66-5.4
	c6.9,0,11.12,1.87,12.66,5.61c0.77,2.08,1.23,3.92,1.4,5.51c0.16,1.6,0.25,3.99,0.25,7.17v73.58c0,3.05-0.08,5.37-0.25,6.96
	c-0.16,1.6-0.69,3.36-1.56,5.3c-1.64,3.6-5.86,5.4-12.66,5.4c-6.68,0-10.79-1.66-12.33-4.99c-1.1-2.36-1.64-5.2-1.64-8.52
	c-0.44,0.97-1.43,2.36-2.96,4.16c-1.54,1.8-3.02,3.33-4.44,4.57C975.45,528.55,971.39,530.07,967.01,530.07z"/>
<path class="st2" d="M1076.15,421.37c10.96,0,20.08,5.27,27.37,15.8c7.29,10.53,10.93,23.42,10.93,38.66v36.58
	c0,3.19-0.08,5.58-0.25,7.17c-0.16,1.6-0.69,3.43-1.56,5.51c-1.43,3.6-5.65,5.4-12.66,5.4c-6.68,0-10.85-1.8-12.49-5.4
	c-0.88-2.08-1.4-3.95-1.56-5.61c-0.16-1.66-0.25-4.16-0.25-7.48v-36.38c0-5.68-1.26-10.11-3.78-13.3c-2.52-3.19-5.73-4.78-9.62-4.78
	c-3.89,0-7.31,1.49-10.27,4.47c-2.96,2.98-4.66,6.34-5.1,10.08v40.32c0,3.19-0.08,5.58-0.25,7.17c-0.16,1.6-0.69,3.43-1.56,5.51
	c-1.43,3.6-5.65,5.4-12.66,5.4c-6.9,0-11.12-1.87-12.66-5.61c-0.77-2.08-1.23-3.88-1.4-5.41c-0.16-1.52-0.25-3.95-0.25-7.27V387.9
	c0-3.19,0.08-5.58,0.25-7.17c0.16-1.59,0.63-3.36,1.4-5.3c1.53-3.74,5.81-5.61,12.82-5.61c6.9,0,11.07,1.87,12.49,5.61
	c0.88,2.08,1.4,3.92,1.56,5.51c0.16,1.59,0.25,3.99,0.25,7.17v45.94C1062.4,425.59,1068.81,421.37,1076.15,421.37z"/>
<path class="st1" d="M577.8,507.16c-2.08-1.66-3.12-4.29-3.12-7.9c0-3.6,2.08-9.07,6.25-16.42c1.2-2.35,3.15-3.53,5.84-3.53
	c2.68,0,6.33,1.7,10.93,5.09c4.6,3.4,8.77,5.09,12.49,5.09c6.68,0,10.03-1.66,10.03-4.99c0-2.63-3.67-4.57-11.01-5.82
	c-6.9-1.25-13.75-4.5-20.55-9.77c-3.18-2.49-5.81-6.41-7.89-11.74c-2.08-5.33-3.12-11.67-3.12-19.02
	c0-21.89,11.89-32.84,35.67-32.84c7.78,0,15.78,2.36,24,7.07c3.83,2.22,5.75,4.99,5.75,8.31c0,3.33-1.21,7.41-3.62,12.26
	c-2.41,4.85-4.88,7.28-7.4,7.28c-1.31,0-3.75-1.04-7.31-3.12c-3.56-2.08-7.42-3.12-11.59-3.12c-6.47,0-9.7,1.53-9.7,4.57
	c0,4.16,3.72,6.86,11.18,8.11c7.23,0.97,14.24,3.6,21.04,7.9c3.18,1.94,5.83,5.3,7.97,10.08c2.14,4.78,3.2,10.78,3.2,17.98
	c0,7.21-1.07,13.34-3.2,18.39c-2.14,5.06-5.12,8.83-8.96,11.33c-7.01,4.3-15.81,6.44-26.38,6.44
	C597.71,518.8,587.55,514.92,577.8,507.16z"/>
<path class="st1" d="M668.86,421.1c9.2-10.81,19.72-16.21,31.56-16.21c11.83,0,22.3,5.37,31.39,16.11
	c9.09,10.74,13.64,24.42,13.64,41.05c0,11.5-2.36,21.72-7.07,30.66c-4.71,8.94-10.44,15.52-17.18,19.75
	c-6.74,4.23-13.72,6.34-20.96,6.34c-7.23,0-14.25-2.25-21.04-6.75c-6.8-4.5-12.52-11.15-17.18-19.95
	c-4.66-8.8-6.99-18.74-6.99-29.83C655.05,445.63,659.65,431.91,668.86,421.1z M689.4,477.12c3.51,3.4,7.07,5.09,10.68,5.09
	c3.62,0,7.23-1.73,10.85-5.2c3.62-3.46,5.42-8.59,5.42-15.38c0-6.79-1.7-11.85-5.1-15.17c-3.4-3.33-7.07-4.99-11.01-4.99
	c-3.95,0-7.62,1.73-11.01,5.2c-3.4,3.46-5.1,8.56-5.1,15.28C684.14,468.67,685.89,473.73,689.4,477.12z"/>
<path class="st1" d="M749.15,484.29c0.93-2.22,2.49-3.77,4.68-4.68c2.19-0.9,5.7-1.35,10.52-1.35c4.82,0,8.3,1.35,10.44,4.05
	c2.14,2.7,3.2,7.93,3.2,15.69c0,2.91-0.16,5.61-0.49,8.11c-0.99,11.78-4.06,22.03-9.21,30.76c-5.15,8.73-11.18,13.09-18.08,13.09
	c-0.77,0-1.45-0.73-2.05-2.18c-0.6-1.45-0.9-3.32-0.9-5.61c0-2.29,0.25-4.12,0.74-5.51c0.49-1.39,1.12-2.25,1.89-2.6
	c0.77-0.35,1.56-0.9,2.38-1.66c0.82-0.76,1.94-2.6,3.37-5.51c1.42-2.91,2.24-6.24,2.47-9.98c-3.51-0.55-6.22-2.04-8.14-4.47
	c-1.92-2.42-2.85-6.37-2.79-11.85c0.05-5.47,0.16-9.01,0.33-10.6C747.67,488.42,748.22,486.51,749.15,484.29z"/>
<path class="st1" d="M888.36,361.76c0.82-2.01,2.27-3.43,4.36-4.26c2.08-0.83,4.85-1.25,8.3-1.25s6.22,0.42,8.3,1.25
	c2.08,0.83,3.53,2.29,4.36,4.37c0.82,2.08,1.31,3.92,1.48,5.51c0.16,1.59,0.25,3.99,0.25,7.17v124.09c0,3.19-0.08,5.58-0.25,7.17
	c-0.16,1.6-0.69,3.36-1.56,5.3c-1.64,3.74-6.27,5.61-13.89,5.61c-7.62,0-11.86-3.39-12.74-10.19c-4.6,6.65-11.01,9.98-19.23,9.98
	c-9.86,0-18.85-5.44-26.96-16.32c-8.11-10.88-12.16-23.56-12.16-38.04c0-14.48,4.08-27.19,12.24-38.14
	c8.16-10.95,17.12-16.42,26.87-16.42c8.11,0,14.41,3.46,18.9,10.39v-43.65c0-3.19,0.08-5.58,0.25-7.17
	C887.05,365.57,887.54,363.77,888.36,361.76z M861.65,474.73c2.85,3.74,6.3,5.61,10.36,5.61c4.05,0,7.42-1.87,10.11-5.61
	c2.68-3.74,4.03-7.86,4.03-12.37c0-4.5-1.29-8.69-3.86-12.58c-2.58-3.88-6.06-5.82-10.44-5.82c-4.38,0-7.89,1.91-10.52,5.72
	c-2.63,3.81-3.94,8-3.94,12.58C857.38,466.83,858.8,470.99,861.65,474.73z"/>
<path class="st1" d="M967.01,516.51c-11.07,0-20.25-5.3-27.53-15.9c-7.29-10.6-10.93-23.52-10.93-38.77v-36.38
	c0-3.33,0.08-5.75,0.25-7.28c0.16-1.52,0.63-3.33,1.4-5.4c1.53-3.74,5.81-5.61,12.82-5.61c7.67,0,12.16,2.63,13.48,7.9
	c0.66,2.22,0.99,5.75,0.99,10.6v36.38c0,5.68,1.29,10.12,3.86,13.3c2.57,3.19,6.03,4.78,10.36,4.78c4.33,0,7.83-1.66,10.52-4.99
	c2.68-3.33,4.03-7.69,4.03-13.09v-36.79c0-3.19,0.08-5.58,0.25-7.17c0.16-1.59,0.68-3.43,1.56-5.51c1.42-3.6,5.64-5.4,12.66-5.4
	c6.9,0,11.12,1.87,12.66,5.61c0.77,2.08,1.23,3.92,1.4,5.51c0.16,1.6,0.25,3.99,0.25,7.17v73.58c0,3.05-0.08,5.37-0.25,6.96
	c-0.16,1.6-0.69,3.36-1.56,5.3c-1.64,3.6-5.86,5.4-12.66,5.4c-6.68,0-10.79-1.66-12.33-4.99c-1.1-2.36-1.64-5.2-1.64-8.52
	c-0.44,0.97-1.43,2.36-2.96,4.16c-1.54,1.8-3.02,3.33-4.44,4.57C975.45,514.99,971.39,516.51,967.01,516.51z"/>
<path class="st1" d="M1076.15,407.8c10.96,0,20.08,5.27,27.37,15.8c7.29,10.53,10.93,23.42,10.93,38.66v36.58
	c0,3.19-0.08,5.58-0.25,7.17c-0.16,1.6-0.69,3.43-1.56,5.51c-1.43,3.6-5.65,5.4-12.66,5.4c-6.68,0-10.85-1.8-12.49-5.4
	c-0.88-2.08-1.4-3.95-1.56-5.61c-0.16-1.66-0.25-4.16-0.25-7.48v-36.38c0-5.68-1.26-10.11-3.78-13.3c-2.52-3.19-5.73-4.78-9.62-4.78
	c-3.89,0-7.31,1.49-10.27,4.47c-2.96,2.98-4.66,6.34-5.1,10.08v40.32c0,3.19-0.08,5.58-0.25,7.17c-0.16,1.6-0.69,3.43-1.56,5.51
	c-1.43,3.6-5.65,5.4-12.66,5.4c-6.9,0-11.12-1.87-12.66-5.61c-0.77-2.08-1.23-3.88-1.4-5.41c-0.16-1.52-0.25-3.95-0.25-7.27v-124.3
	c0-3.19,0.08-5.58,0.25-7.17c0.16-1.59,0.63-3.36,1.4-5.3c1.53-3.74,5.81-5.61,12.82-5.61c6.9,0,11.07,1.87,12.49,5.61
	c0.88,2.08,1.4,3.92,1.56,5.51c0.16,1.59,0.25,3.99,0.25,7.17v45.94C1062.4,412.03,1068.81,407.8,1076.15,407.8z"/>
<path class="st1" d="M1129.24,485.23c1.09-2.7,2.77-4.54,5.01-5.51c2.24-0.97,5.75-1.45,10.52-1.45s8.22,1.32,10.35,3.95
	c2.14,2.63,3.21,6.79,3.21,12.47v3.33c0,3.33-0.08,5.79-0.25,7.38c-0.16,1.59-0.69,3.5-1.56,5.72c-1.75,4.02-5.94,6.03-12.57,6.03
	c-6.63,0-11.01-1.35-13.15-4.05c-2.14-2.7-3.2-7.93-3.2-15.69C1127.59,491.98,1128.14,487.93,1129.24,485.23z M1151.26,461.01
	c-2.08,0.7-4.88,1.04-8.38,1.04c-3.51,0-6.3-0.34-8.38-1.04c-2.08-0.69-3.54-1.94-4.36-3.74c-0.82-1.8-1.31-3.39-1.48-4.78
	c-0.16-1.38-0.25-3.53-0.25-6.44v-65.89c0-2.91,0.08-5.09,0.25-6.55c0.16-1.45,0.68-3.08,1.56-4.88c0.88-1.8,2.36-3.08,4.44-3.85
	c2.08-0.76,4.87-1.14,8.38-1.14c3.51,0,6.3,0.38,8.38,1.14c2.08,0.76,3.53,2.08,4.35,3.95c0.82,1.87,1.32,3.53,1.48,4.99
	c0.16,1.46,0.25,3.64,0.25,6.55v65.89c0,2.91-0.08,5.06-0.25,6.44c-0.16,1.39-0.69,2.95-1.56,4.68
	C1154.82,459.11,1153.34,460.32,1151.26,461.01z"/>
</svg>
